G04 #@! TF.GenerationSoftware,KiCad,Pcbnew,(5.1.2)-1*
G04 #@! TF.CreationDate,2020-06-05T12:30:06-05:00*
G04 #@! TF.ProjectId,Nightmare compact,4e696768-746d-4617-9265-20636f6d7061,rev?*
G04 #@! TF.SameCoordinates,Original*
G04 #@! TF.FileFunction,Soldermask,Top*
G04 #@! TF.FilePolarity,Negative*
%FSLAX46Y46*%
G04 Gerber Fmt 4.6, Leading zero omitted, Abs format (unit mm)*
G04 Created by KiCad (PCBNEW (5.1.2)-1) date 2020-06-05 12:30:06*
%MOMM*%
%LPD*%
G04 APERTURE LIST*
%ADD10O,2.100000X2.100000*%
%ADD11R,2.100000X2.100000*%
%ADD12R,1.600000X2.000000*%
%ADD13C,2.000000*%
%ADD14R,2.000000X2.000000*%
%ADD15C,2.686000*%
%ADD16C,2.600000*%
%ADD17C,4.387800*%
%ADD18C,3.448000*%
%ADD19C,2.150000*%
%ADD20R,2.152600X2.152600*%
%ADD21C,2.152600*%
G04 APERTURE END LIST*
D10*
X335756250Y-92551250D03*
X335756250Y-95091250D03*
D11*
X335756250Y-97631250D03*
D10*
X314325000Y-97948750D03*
X314325000Y-95408750D03*
D11*
X314325000Y-92868750D03*
D12*
X325751184Y-162217066D03*
X325751184Y-159417066D03*
D13*
X325751184Y-156917066D03*
D14*
X325751184Y-164717066D03*
D15*
X189738000Y-162528250D03*
X183388000Y-165068250D03*
D16*
X377656084Y-160359866D03*
X382418584Y-119910366D03*
X451493884Y-138960366D03*
D14*
X287397184Y-164971066D03*
D13*
X287397184Y-157171066D03*
D12*
X287397184Y-159671066D03*
X287397184Y-162471066D03*
D15*
X437367944Y-162528250D03*
X431017944Y-165068250D03*
D16*
X310993784Y-138960366D03*
D14*
X401544784Y-164996466D03*
D13*
X401544784Y-157196466D03*
D12*
X401544784Y-159696466D03*
X401544784Y-162496466D03*
D16*
X210981284Y-119897666D03*
D15*
X454830424Y-146018266D03*
X461180424Y-143478266D03*
D16*
X244306084Y-158010366D03*
D15*
X220674376Y-143478266D03*
X214324376Y-146018266D03*
X380217992Y-143478266D03*
X373867992Y-146018266D03*
X354818008Y-146018266D03*
X361168008Y-143478266D03*
X240518104Y-146018266D03*
X246868104Y-143478266D03*
X258754496Y-162528250D03*
X252404496Y-165068250D03*
X418317960Y-143478266D03*
X411967960Y-146018266D03*
X435780440Y-107918298D03*
X442130440Y-105378298D03*
X335768024Y-146018266D03*
X342118024Y-143478266D03*
X183368152Y-146018266D03*
X189718152Y-143478266D03*
X323068040Y-143478266D03*
X316718040Y-146018266D03*
X439749192Y-143478266D03*
X433399192Y-146018266D03*
X304018056Y-143478266D03*
X297668056Y-146018266D03*
X237343112Y-162528250D03*
X230993112Y-165068250D03*
X284968072Y-143478266D03*
X278618072Y-146018266D03*
X409586712Y-165068250D03*
X415936712Y-162528250D03*
X392917976Y-146018266D03*
X399267976Y-143478266D03*
X265918088Y-143478266D03*
X259568088Y-146018266D03*
D12*
X257424968Y-108134858D03*
X257424968Y-110934858D03*
D13*
X257424968Y-105634858D03*
D14*
X257424968Y-113434858D03*
X409824840Y-113793458D03*
D13*
X409824840Y-105993458D03*
D12*
X409824840Y-111293458D03*
X409824840Y-108493458D03*
D14*
X295524936Y-113434858D03*
D13*
X295524936Y-105634858D03*
D12*
X295524936Y-110934858D03*
X295524936Y-108134858D03*
X281237448Y-121529378D03*
X281237448Y-124329378D03*
D13*
X281237448Y-119029378D03*
D14*
X281237448Y-126829378D03*
X319337416Y-133080154D03*
D13*
X319337416Y-125280154D03*
D12*
X319337416Y-130580154D03*
X319337416Y-127780154D03*
X300287432Y-121529378D03*
X300287432Y-124329378D03*
D13*
X300287432Y-119029378D03*
D14*
X300287432Y-126829378D03*
X262187464Y-126829378D03*
D13*
X262187464Y-119029378D03*
D12*
X262187464Y-124329378D03*
X262187464Y-121529378D03*
X243137480Y-121529378D03*
X243137480Y-124329378D03*
D13*
X243137480Y-119029378D03*
D14*
X243137480Y-126829378D03*
X352972544Y-113434858D03*
D13*
X352972544Y-105634858D03*
D12*
X352972544Y-110934858D03*
X352972544Y-108134858D03*
X390774856Y-108195802D03*
X390774856Y-110995802D03*
D13*
X390774856Y-105695802D03*
D14*
X390774856Y-113495802D03*
D12*
X314574920Y-108165330D03*
X314574920Y-110965330D03*
D13*
X314574920Y-105665330D03*
D14*
X314574920Y-113465330D03*
X372022528Y-113732514D03*
D13*
X372022528Y-105932514D03*
D12*
X372022528Y-111232514D03*
X372022528Y-108432514D03*
X336303808Y-108165330D03*
X336303808Y-110965330D03*
D13*
X336303808Y-105665330D03*
D14*
X336303808Y-113465330D03*
D12*
X276474952Y-108134858D03*
X276474952Y-110934858D03*
D13*
X276474952Y-105634858D03*
D14*
X276474952Y-113434858D03*
X222003904Y-126948130D03*
D13*
X222003904Y-119148130D03*
D12*
X222003904Y-124448130D03*
X222003904Y-121648130D03*
X428874824Y-108195802D03*
X428874824Y-110995802D03*
D13*
X428874824Y-105695802D03*
D14*
X428874824Y-113495802D03*
D12*
X195810176Y-121648130D03*
X195810176Y-124448130D03*
D13*
X195810176Y-119148130D03*
D14*
X195810176Y-126948130D03*
D12*
X465931250Y-107343750D03*
X465931250Y-110143750D03*
D13*
X465931250Y-104843750D03*
D14*
X465931250Y-112643750D03*
D17*
X391965528Y-159353250D03*
X277665528Y-159353250D03*
D18*
X391965528Y-174593250D03*
X277665528Y-174593250D03*
D19*
X339895528Y-167608250D03*
X329735528Y-167608250D03*
D17*
X334815528Y-167608250D03*
X320410834Y-159343866D03*
X296598334Y-159343866D03*
D18*
X320410834Y-174583866D03*
X296598334Y-174583866D03*
D19*
X313584584Y-167598866D03*
X303424584Y-167598866D03*
D17*
X308504584Y-167598866D03*
X368035834Y-159343866D03*
X344223334Y-159343866D03*
D18*
X368035834Y-174583866D03*
X344223334Y-174583866D03*
D19*
X361209584Y-167598866D03*
X351049584Y-167598866D03*
D17*
X356129584Y-167598866D03*
D12*
X347750184Y-158480266D03*
X347750184Y-161280266D03*
D13*
X347750184Y-155980266D03*
D14*
X347750184Y-163780266D03*
D15*
X245280600Y-107918298D03*
X251630600Y-105378298D03*
X226230616Y-107918298D03*
X232580616Y-105378298D03*
D14*
X465931250Y-145998114D03*
D13*
X465931250Y-138198114D03*
D12*
X465931250Y-143498114D03*
X465931250Y-140698114D03*
X443162312Y-159629346D03*
X443162312Y-162429346D03*
D13*
X443162312Y-157129346D03*
D14*
X443162312Y-164929346D03*
D12*
X447924808Y-140640306D03*
X447924808Y-143440306D03*
D13*
X447924808Y-138140306D03*
D14*
X447924808Y-145940306D03*
D12*
X195810176Y-159927002D03*
X195810176Y-162727002D03*
D13*
X195810176Y-157427002D03*
D14*
X195810176Y-165227002D03*
X424112328Y-164990290D03*
D13*
X424112328Y-157190290D03*
D12*
X424112328Y-162490290D03*
X424112328Y-159690290D03*
X245750184Y-164980266D03*
X245750184Y-167780266D03*
D13*
X245750184Y-162480266D03*
D14*
X245750184Y-170280266D03*
X266949960Y-164959818D03*
D13*
X266949960Y-157159818D03*
D12*
X266949960Y-162459818D03*
X266949960Y-159659818D03*
D14*
X424112328Y-145879362D03*
D13*
X424112328Y-138079362D03*
D12*
X424112328Y-143379362D03*
X424112328Y-140579362D03*
D15*
X207180632Y-107918298D03*
X213530632Y-105378298D03*
X321480536Y-107918298D03*
X327830536Y-105378298D03*
X308780552Y-105378298D03*
X302430552Y-107918298D03*
X289730568Y-105378298D03*
X283380568Y-107918298D03*
D14*
X465931250Y-126612500D03*
D13*
X465931250Y-118812500D03*
D12*
X465931250Y-124112500D03*
X465931250Y-121312500D03*
D15*
X264330584Y-107918298D03*
X270680584Y-105378298D03*
X183368309Y-107918391D03*
X189718309Y-105378391D03*
X189718152Y-124428282D03*
X183368152Y-126968282D03*
X359580504Y-107918298D03*
X365930504Y-105378298D03*
X423080456Y-105378298D03*
X416730456Y-107918298D03*
X461180424Y-105378298D03*
X454830424Y-107918298D03*
X209561880Y-126968282D03*
X215911880Y-124428282D03*
X326243032Y-126968282D03*
X332593032Y-124428282D03*
X269093080Y-126968282D03*
X275443080Y-124428282D03*
X384980488Y-105378298D03*
X378630488Y-107918298D03*
X313543048Y-124428282D03*
X307193048Y-126968282D03*
X288143064Y-126968282D03*
X294493064Y-124428282D03*
X346880520Y-105378298D03*
X340530520Y-107918298D03*
X397680472Y-107918298D03*
X404030472Y-105378298D03*
X250043096Y-126968282D03*
X256393096Y-124428282D03*
X408792968Y-124428282D03*
X402442968Y-126968282D03*
X383392984Y-126968282D03*
X389742984Y-124428282D03*
X351643016Y-124428282D03*
X345293016Y-126968282D03*
X370693000Y-124428282D03*
X364343000Y-126968282D03*
X237343112Y-124428282D03*
X230993112Y-126968282D03*
D14*
X376487368Y-126829378D03*
D13*
X376487368Y-119029378D03*
D12*
X376487368Y-124329378D03*
X376487368Y-121529378D03*
X414587336Y-121529378D03*
X414587336Y-124329378D03*
D13*
X414587336Y-119029378D03*
D14*
X414587336Y-126829378D03*
D12*
X405062344Y-140579362D03*
X405062344Y-143379362D03*
D13*
X405062344Y-138079362D03*
D14*
X405062344Y-145879362D03*
X366962376Y-145879362D03*
D13*
X366962376Y-138079362D03*
D12*
X366962376Y-143379362D03*
X366962376Y-140579362D03*
D14*
X252662472Y-145940306D03*
D13*
X252662472Y-138140306D03*
D12*
X252662472Y-143440306D03*
X252662472Y-140640306D03*
X395537352Y-121590322D03*
X395537352Y-124390322D03*
D13*
X395537352Y-119090322D03*
D14*
X395537352Y-126890322D03*
X338387400Y-126829378D03*
D13*
X338387400Y-119029378D03*
D12*
X338387400Y-124329378D03*
X338387400Y-121529378D03*
X433637320Y-121529378D03*
X433637320Y-124329378D03*
D13*
X433637320Y-119029378D03*
D14*
X433637320Y-126829378D03*
X447924808Y-113434858D03*
D13*
X447924808Y-105634858D03*
D12*
X447924808Y-110934858D03*
X447924808Y-108134858D03*
D14*
X328564752Y-145940306D03*
D13*
X328564752Y-138140306D03*
D12*
X328564752Y-143440306D03*
X328564752Y-140640306D03*
D14*
X357437384Y-126829378D03*
D13*
X357437384Y-119029378D03*
D12*
X357437384Y-124329378D03*
X357437384Y-121529378D03*
D14*
X195512520Y-145940306D03*
D13*
X195512520Y-138140306D03*
D12*
X195512520Y-143440306D03*
X195512520Y-140640306D03*
X311000184Y-146480266D03*
X311000184Y-149280266D03*
D13*
X311000184Y-143980266D03*
D14*
X311000184Y-151780266D03*
X290762440Y-145940306D03*
D13*
X290762440Y-138140306D03*
D12*
X290762440Y-143440306D03*
X290762440Y-140640306D03*
X233612488Y-140640306D03*
X233612488Y-143440306D03*
D13*
X233612488Y-138140306D03*
D14*
X233612488Y-145940306D03*
X386012360Y-145940306D03*
D13*
X386012360Y-138140306D03*
D12*
X386012360Y-143440306D03*
X386012360Y-140640306D03*
X271712456Y-140640306D03*
X271712456Y-143440306D03*
D13*
X271712456Y-138140306D03*
D14*
X271712456Y-145940306D03*
D12*
X347912392Y-140640306D03*
X347912392Y-143440306D03*
D13*
X347912392Y-138140306D03*
D14*
X347912392Y-145940306D03*
D15*
X280107384Y-162518866D03*
X273757384Y-165058866D03*
D12*
X195512520Y-108432514D03*
X195512520Y-111232514D03*
D13*
X195512520Y-105932514D03*
D14*
X195512520Y-113732514D03*
D15*
X427842952Y-124428282D03*
X421492952Y-126968282D03*
X394381984Y-162493466D03*
X388031984Y-165033466D03*
X454036680Y-124428282D03*
X447686680Y-126968282D03*
D20*
X317648584Y-92978746D03*
D21*
X317648584Y-95518746D03*
X317648584Y-98058746D03*
X317648584Y-100598746D03*
X317648584Y-103138746D03*
X317648584Y-105678746D03*
X317648584Y-108218746D03*
X317648584Y-110758746D03*
X317648584Y-113298746D03*
X317648584Y-115838746D03*
X317648584Y-118378746D03*
X332888584Y-120918746D03*
X332888584Y-118378746D03*
X332888584Y-115838746D03*
X332888584Y-113298746D03*
X332888584Y-110758746D03*
X332888584Y-108218746D03*
X332888584Y-105678746D03*
X332888584Y-103138746D03*
X332888584Y-100598746D03*
X332888584Y-98058746D03*
X332888584Y-95518746D03*
X317648584Y-120918746D03*
X332888584Y-92978746D03*
D12*
X219325000Y-108134858D03*
X219325000Y-110934858D03*
D13*
X219325000Y-105634858D03*
D14*
X219325000Y-113434858D03*
D12*
X238374984Y-108134858D03*
X238374984Y-110934858D03*
D13*
X238374984Y-105634858D03*
D14*
X238374984Y-113434858D03*
M02*
