G04 #@! TF.GenerationSoftware,KiCad,Pcbnew,(5.1.2)-1*
G04 #@! TF.CreationDate,2020-06-05T12:30:06-05:00*
G04 #@! TF.ProjectId,Nightmare compact,4e696768-746d-4617-9265-20636f6d7061,rev?*
G04 #@! TF.SameCoordinates,Original*
G04 #@! TF.FileFunction,Legend,Top*
G04 #@! TF.FilePolarity,Positive*
%FSLAX46Y46*%
G04 Gerber Fmt 4.6, Leading zero omitted, Abs format (unit mm)*
G04 Created by KiCad (PCBNEW (5.1.2)-1) date 2020-06-05 12:30:06*
%MOMM*%
%LPD*%
G04 APERTURE LIST*
%ADD10C,0.100000*%
%ADD11C,0.200000*%
%ADD12C,0.120000*%
%ADD13C,0.150000*%
%ADD14C,0.381000*%
%ADD15C,0.203200*%
G04 APERTURE END LIST*
D10*
X314022835Y-90823160D02*
X313927597Y-90775540D01*
X313784740Y-90775540D01*
X313641882Y-90823160D01*
X313546644Y-90918398D01*
X313499025Y-91013636D01*
X313451406Y-91204112D01*
X313451406Y-91346969D01*
X313499025Y-91537445D01*
X313546644Y-91632683D01*
X313641882Y-91727921D01*
X313784740Y-91775540D01*
X313879978Y-91775540D01*
X314022835Y-91727921D01*
X314070454Y-91680302D01*
X314070454Y-91346969D01*
X313879978Y-91346969D01*
X314499025Y-91775540D02*
X314499025Y-90775540D01*
X315070454Y-91775540D01*
X315070454Y-90775540D01*
X315546644Y-91775540D02*
X315546644Y-90775540D01*
X315784740Y-90775540D01*
X315927597Y-90823160D01*
X316022835Y-90918398D01*
X316070454Y-91013636D01*
X316118073Y-91204112D01*
X316118073Y-91346969D01*
X316070454Y-91537445D01*
X316022835Y-91632683D01*
X315927597Y-91727921D01*
X315784740Y-91775540D01*
X315546644Y-91775540D01*
X337906585Y-96976438D02*
X337872913Y-96875423D01*
X337771898Y-96774408D01*
X337637211Y-96707064D01*
X337502524Y-96707064D01*
X337401509Y-96740736D01*
X337233150Y-96841751D01*
X337132135Y-96942766D01*
X337031119Y-97111125D01*
X336997448Y-97212140D01*
X336997448Y-97346827D01*
X337064791Y-97481514D01*
X337132135Y-97548858D01*
X337266822Y-97616201D01*
X337334165Y-97616201D01*
X337569867Y-97380499D01*
X337435180Y-97245812D01*
X337569867Y-97986591D02*
X338276974Y-97279484D01*
X337973928Y-98390652D01*
X338681035Y-97683545D01*
X338310646Y-98727369D02*
X339017753Y-98020262D01*
X339186111Y-98188621D01*
X339253455Y-98323308D01*
X339253455Y-98457995D01*
X339219783Y-98559010D01*
X339118768Y-98727369D01*
X339017753Y-98828384D01*
X338849394Y-98929400D01*
X338748379Y-98963071D01*
X338613692Y-98963071D01*
X338479005Y-98895728D01*
X338310646Y-98727369D01*
D11*
X336249107Y-100464880D02*
X335915773Y-99988690D01*
X335677678Y-100464880D02*
X335677678Y-99464880D01*
X336058630Y-99464880D01*
X336153869Y-99512500D01*
X336201488Y-99560119D01*
X336249107Y-99655357D01*
X336249107Y-99798214D01*
X336201488Y-99893452D01*
X336153869Y-99941071D01*
X336058630Y-99988690D01*
X335677678Y-99988690D01*
X337201488Y-99512500D02*
X337106250Y-99464880D01*
X336963392Y-99464880D01*
X336820535Y-99512500D01*
X336725297Y-99607738D01*
X336677678Y-99702976D01*
X336630059Y-99893452D01*
X336630059Y-100036309D01*
X336677678Y-100226785D01*
X336725297Y-100322023D01*
X336820535Y-100417261D01*
X336963392Y-100464880D01*
X337058630Y-100464880D01*
X337201488Y-100417261D01*
X337249107Y-100369642D01*
X337249107Y-100036309D01*
X337058630Y-100036309D01*
X338011011Y-99941071D02*
X338153869Y-99988690D01*
X338201488Y-100036309D01*
X338249107Y-100131547D01*
X338249107Y-100274404D01*
X338201488Y-100369642D01*
X338153869Y-100417261D01*
X338058630Y-100464880D01*
X337677678Y-100464880D01*
X337677678Y-99464880D01*
X338011011Y-99464880D01*
X338106250Y-99512500D01*
X338153869Y-99560119D01*
X338201488Y-99655357D01*
X338201488Y-99750595D01*
X338153869Y-99845833D01*
X338106250Y-99893452D01*
X338011011Y-99941071D01*
X337677678Y-99941071D01*
X339439583Y-99941071D02*
X339772916Y-99941071D01*
X339915773Y-100464880D02*
X339439583Y-100464880D01*
X339439583Y-99464880D01*
X339915773Y-99464880D01*
X340487202Y-100464880D02*
X340391964Y-100417261D01*
X340344345Y-100322023D01*
X340344345Y-99464880D01*
X340868154Y-100464880D02*
X340868154Y-99798214D01*
X340868154Y-99464880D02*
X340820535Y-99512500D01*
X340868154Y-99560119D01*
X340915773Y-99512500D01*
X340868154Y-99464880D01*
X340868154Y-99560119D01*
X341201488Y-99798214D02*
X341582440Y-99798214D01*
X341344345Y-99464880D02*
X341344345Y-100322023D01*
X341391964Y-100417261D01*
X341487202Y-100464880D01*
X341582440Y-100464880D01*
X342296726Y-100417261D02*
X342201488Y-100464880D01*
X342011011Y-100464880D01*
X341915773Y-100417261D01*
X341868154Y-100322023D01*
X341868154Y-99941071D01*
X341915773Y-99845833D01*
X342011011Y-99798214D01*
X342201488Y-99798214D01*
X342296726Y-99845833D01*
X342344345Y-99941071D01*
X342344345Y-100036309D01*
X341868154Y-100131547D01*
X342772916Y-100083928D02*
X343534821Y-100083928D01*
X344582440Y-100369642D02*
X344534821Y-100417261D01*
X344391964Y-100464880D01*
X344296726Y-100464880D01*
X344153869Y-100417261D01*
X344058630Y-100322023D01*
X344011011Y-100226785D01*
X343963392Y-100036309D01*
X343963392Y-99893452D01*
X344011011Y-99702976D01*
X344058630Y-99607738D01*
X344153869Y-99512500D01*
X344296726Y-99464880D01*
X344391964Y-99464880D01*
X344534821Y-99512500D01*
X344582440Y-99560119D01*
X345963392Y-99464880D02*
X346153869Y-99464880D01*
X346249107Y-99512500D01*
X346344345Y-99607738D01*
X346391964Y-99798214D01*
X346391964Y-100131547D01*
X346344345Y-100322023D01*
X346249107Y-100417261D01*
X346153869Y-100464880D01*
X345963392Y-100464880D01*
X345868154Y-100417261D01*
X345772916Y-100322023D01*
X345725297Y-100131547D01*
X345725297Y-99798214D01*
X345772916Y-99607738D01*
X345868154Y-99512500D01*
X345963392Y-99464880D01*
X346820535Y-99798214D02*
X346820535Y-100464880D01*
X346820535Y-99893452D02*
X346868154Y-99845833D01*
X346963392Y-99798214D01*
X347106250Y-99798214D01*
X347201488Y-99845833D01*
X347249107Y-99941071D01*
X347249107Y-100464880D01*
X347868154Y-100464880D02*
X347772916Y-100417261D01*
X347725297Y-100322023D01*
X347725297Y-99464880D01*
X348153869Y-99798214D02*
X348391964Y-100464880D01*
X348630059Y-99798214D02*
X348391964Y-100464880D01*
X348296726Y-100702976D01*
X348249107Y-100750595D01*
X348153869Y-100798214D01*
D12*
X337086250Y-98961250D02*
X335756250Y-98961250D01*
X337086250Y-97631250D02*
X337086250Y-98961250D01*
X337086250Y-96361250D02*
X334426250Y-96361250D01*
X334426250Y-96361250D02*
X334426250Y-91221250D01*
X337086250Y-96361250D02*
X337086250Y-91221250D01*
X337086250Y-91221250D02*
X334426250Y-91221250D01*
X312995000Y-91538750D02*
X314325000Y-91538750D01*
X312995000Y-92868750D02*
X312995000Y-91538750D01*
X312995000Y-94138750D02*
X315655000Y-94138750D01*
X315655000Y-94138750D02*
X315655000Y-99278750D01*
X312995000Y-94138750D02*
X312995000Y-99278750D01*
X312995000Y-99278750D02*
X315655000Y-99278750D01*
D13*
X324989184Y-162595066D02*
X326513184Y-162595066D01*
X324989184Y-162722066D02*
X326513184Y-162722066D01*
X326513184Y-162849066D02*
X324989184Y-162849066D01*
X324989184Y-163230066D02*
X326513184Y-163230066D01*
X326513184Y-163103066D02*
X324989184Y-163103066D01*
X324989184Y-162976066D02*
X326513184Y-162976066D01*
X324989184Y-158277066D02*
X324989184Y-158785066D01*
X326513184Y-158277066D02*
X324989184Y-158277066D01*
X326513184Y-163357066D02*
X326513184Y-158277066D01*
X324989184Y-163357066D02*
X326513184Y-163357066D01*
X324989184Y-158277066D02*
X324989184Y-163357066D01*
D14*
X180848000Y-161258250D02*
X182626000Y-161258250D01*
X191770000Y-161258250D02*
X193548000Y-161258250D01*
X193548000Y-161258250D02*
X193548000Y-163036250D01*
X193548000Y-172180250D02*
X193548000Y-173958250D01*
X193548000Y-173958250D02*
X191770000Y-173958250D01*
X182626000Y-173958250D02*
X180848000Y-173958250D01*
X180848000Y-173958250D02*
X180848000Y-172180250D01*
X180848000Y-163036250D02*
X180848000Y-161258250D01*
D13*
X286635184Y-158531066D02*
X286635184Y-163611066D01*
X286635184Y-163611066D02*
X288159184Y-163611066D01*
X288159184Y-163611066D02*
X288159184Y-158531066D01*
X288159184Y-158531066D02*
X286635184Y-158531066D01*
X286635184Y-158531066D02*
X286635184Y-159039066D01*
X286635184Y-163230066D02*
X288159184Y-163230066D01*
X288159184Y-163357066D02*
X286635184Y-163357066D01*
X286635184Y-163484066D02*
X288159184Y-163484066D01*
X288159184Y-163103066D02*
X286635184Y-163103066D01*
X286635184Y-162976066D02*
X288159184Y-162976066D01*
X286635184Y-162849066D02*
X288159184Y-162849066D01*
D14*
X428477944Y-161258250D02*
X430255944Y-161258250D01*
X439399944Y-161258250D02*
X441177944Y-161258250D01*
X441177944Y-161258250D02*
X441177944Y-163036250D01*
X441177944Y-172180250D02*
X441177944Y-173958250D01*
X441177944Y-173958250D02*
X439399944Y-173958250D01*
X430255944Y-173958250D02*
X428477944Y-173958250D01*
X428477944Y-173958250D02*
X428477944Y-172180250D01*
X428477944Y-163036250D02*
X428477944Y-161258250D01*
D13*
X400782784Y-158556466D02*
X400782784Y-163636466D01*
X400782784Y-163636466D02*
X402306784Y-163636466D01*
X402306784Y-163636466D02*
X402306784Y-158556466D01*
X402306784Y-158556466D02*
X400782784Y-158556466D01*
X400782784Y-158556466D02*
X400782784Y-159064466D01*
X400782784Y-163255466D02*
X402306784Y-163255466D01*
X402306784Y-163382466D02*
X400782784Y-163382466D01*
X400782784Y-163509466D02*
X402306784Y-163509466D01*
X402306784Y-163128466D02*
X400782784Y-163128466D01*
X400782784Y-163001466D02*
X402306784Y-163001466D01*
X400782784Y-162874466D02*
X402306784Y-162874466D01*
D14*
X452290424Y-143986266D02*
X452290424Y-142208266D01*
X452290424Y-154908266D02*
X452290424Y-153130266D01*
X454068424Y-154908266D02*
X452290424Y-154908266D01*
X464990424Y-154908266D02*
X463212424Y-154908266D01*
X464990424Y-153130266D02*
X464990424Y-154908266D01*
X464990424Y-142208266D02*
X464990424Y-143986266D01*
X463212424Y-142208266D02*
X464990424Y-142208266D01*
X452290424Y-142208266D02*
X454068424Y-142208266D01*
X211784376Y-142208266D02*
X213562376Y-142208266D01*
X222706376Y-142208266D02*
X224484376Y-142208266D01*
X224484376Y-142208266D02*
X224484376Y-143986266D01*
X224484376Y-153130266D02*
X224484376Y-154908266D01*
X224484376Y-154908266D02*
X222706376Y-154908266D01*
X213562376Y-154908266D02*
X211784376Y-154908266D01*
X211784376Y-154908266D02*
X211784376Y-153130266D01*
X211784376Y-143986266D02*
X211784376Y-142208266D01*
X371327992Y-142208266D02*
X373105992Y-142208266D01*
X382249992Y-142208266D02*
X384027992Y-142208266D01*
X384027992Y-142208266D02*
X384027992Y-143986266D01*
X384027992Y-153130266D02*
X384027992Y-154908266D01*
X384027992Y-154908266D02*
X382249992Y-154908266D01*
X373105992Y-154908266D02*
X371327992Y-154908266D01*
X371327992Y-154908266D02*
X371327992Y-153130266D01*
X371327992Y-143986266D02*
X371327992Y-142208266D01*
X352278008Y-143986266D02*
X352278008Y-142208266D01*
X352278008Y-154908266D02*
X352278008Y-153130266D01*
X354056008Y-154908266D02*
X352278008Y-154908266D01*
X364978008Y-154908266D02*
X363200008Y-154908266D01*
X364978008Y-153130266D02*
X364978008Y-154908266D01*
X364978008Y-142208266D02*
X364978008Y-143986266D01*
X363200008Y-142208266D02*
X364978008Y-142208266D01*
X352278008Y-142208266D02*
X354056008Y-142208266D01*
X237978104Y-143986266D02*
X237978104Y-142208266D01*
X237978104Y-154908266D02*
X237978104Y-153130266D01*
X239756104Y-154908266D02*
X237978104Y-154908266D01*
X250678104Y-154908266D02*
X248900104Y-154908266D01*
X250678104Y-153130266D02*
X250678104Y-154908266D01*
X250678104Y-142208266D02*
X250678104Y-143986266D01*
X248900104Y-142208266D02*
X250678104Y-142208266D01*
X237978104Y-142208266D02*
X239756104Y-142208266D01*
X249864496Y-161258250D02*
X251642496Y-161258250D01*
X260786496Y-161258250D02*
X262564496Y-161258250D01*
X262564496Y-161258250D02*
X262564496Y-163036250D01*
X262564496Y-172180250D02*
X262564496Y-173958250D01*
X262564496Y-173958250D02*
X260786496Y-173958250D01*
X251642496Y-173958250D02*
X249864496Y-173958250D01*
X249864496Y-173958250D02*
X249864496Y-172180250D01*
X249864496Y-163036250D02*
X249864496Y-161258250D01*
X409427960Y-142208266D02*
X411205960Y-142208266D01*
X420349960Y-142208266D02*
X422127960Y-142208266D01*
X422127960Y-142208266D02*
X422127960Y-143986266D01*
X422127960Y-153130266D02*
X422127960Y-154908266D01*
X422127960Y-154908266D02*
X420349960Y-154908266D01*
X411205960Y-154908266D02*
X409427960Y-154908266D01*
X409427960Y-154908266D02*
X409427960Y-153130266D01*
X409427960Y-143986266D02*
X409427960Y-142208266D01*
X433240440Y-105886298D02*
X433240440Y-104108298D01*
X433240440Y-116808298D02*
X433240440Y-115030298D01*
X435018440Y-116808298D02*
X433240440Y-116808298D01*
X445940440Y-116808298D02*
X444162440Y-116808298D01*
X445940440Y-115030298D02*
X445940440Y-116808298D01*
X445940440Y-104108298D02*
X445940440Y-105886298D01*
X444162440Y-104108298D02*
X445940440Y-104108298D01*
X433240440Y-104108298D02*
X435018440Y-104108298D01*
X333228024Y-143986266D02*
X333228024Y-142208266D01*
X333228024Y-154908266D02*
X333228024Y-153130266D01*
X335006024Y-154908266D02*
X333228024Y-154908266D01*
X345928024Y-154908266D02*
X344150024Y-154908266D01*
X345928024Y-153130266D02*
X345928024Y-154908266D01*
X345928024Y-142208266D02*
X345928024Y-143986266D01*
X344150024Y-142208266D02*
X345928024Y-142208266D01*
X333228024Y-142208266D02*
X335006024Y-142208266D01*
X180828152Y-143986266D02*
X180828152Y-142208266D01*
X180828152Y-154908266D02*
X180828152Y-153130266D01*
X182606152Y-154908266D02*
X180828152Y-154908266D01*
X193528152Y-154908266D02*
X191750152Y-154908266D01*
X193528152Y-153130266D02*
X193528152Y-154908266D01*
X193528152Y-142208266D02*
X193528152Y-143986266D01*
X191750152Y-142208266D02*
X193528152Y-142208266D01*
X180828152Y-142208266D02*
X182606152Y-142208266D01*
X314178040Y-142208266D02*
X315956040Y-142208266D01*
X325100040Y-142208266D02*
X326878040Y-142208266D01*
X326878040Y-142208266D02*
X326878040Y-143986266D01*
X326878040Y-153130266D02*
X326878040Y-154908266D01*
X326878040Y-154908266D02*
X325100040Y-154908266D01*
X315956040Y-154908266D02*
X314178040Y-154908266D01*
X314178040Y-154908266D02*
X314178040Y-153130266D01*
X314178040Y-143986266D02*
X314178040Y-142208266D01*
X430859192Y-142208266D02*
X432637192Y-142208266D01*
X441781192Y-142208266D02*
X443559192Y-142208266D01*
X443559192Y-142208266D02*
X443559192Y-143986266D01*
X443559192Y-153130266D02*
X443559192Y-154908266D01*
X443559192Y-154908266D02*
X441781192Y-154908266D01*
X432637192Y-154908266D02*
X430859192Y-154908266D01*
X430859192Y-154908266D02*
X430859192Y-153130266D01*
X430859192Y-143986266D02*
X430859192Y-142208266D01*
X295128056Y-142208266D02*
X296906056Y-142208266D01*
X306050056Y-142208266D02*
X307828056Y-142208266D01*
X307828056Y-142208266D02*
X307828056Y-143986266D01*
X307828056Y-153130266D02*
X307828056Y-154908266D01*
X307828056Y-154908266D02*
X306050056Y-154908266D01*
X296906056Y-154908266D02*
X295128056Y-154908266D01*
X295128056Y-154908266D02*
X295128056Y-153130266D01*
X295128056Y-143986266D02*
X295128056Y-142208266D01*
X228453112Y-161258250D02*
X230231112Y-161258250D01*
X239375112Y-161258250D02*
X241153112Y-161258250D01*
X241153112Y-161258250D02*
X241153112Y-163036250D01*
X241153112Y-172180250D02*
X241153112Y-173958250D01*
X241153112Y-173958250D02*
X239375112Y-173958250D01*
X230231112Y-173958250D02*
X228453112Y-173958250D01*
X228453112Y-173958250D02*
X228453112Y-172180250D01*
X228453112Y-163036250D02*
X228453112Y-161258250D01*
X276078072Y-142208266D02*
X277856072Y-142208266D01*
X287000072Y-142208266D02*
X288778072Y-142208266D01*
X288778072Y-142208266D02*
X288778072Y-143986266D01*
X288778072Y-153130266D02*
X288778072Y-154908266D01*
X288778072Y-154908266D02*
X287000072Y-154908266D01*
X277856072Y-154908266D02*
X276078072Y-154908266D01*
X276078072Y-154908266D02*
X276078072Y-153130266D01*
X276078072Y-143986266D02*
X276078072Y-142208266D01*
X407046712Y-163036250D02*
X407046712Y-161258250D01*
X407046712Y-173958250D02*
X407046712Y-172180250D01*
X408824712Y-173958250D02*
X407046712Y-173958250D01*
X419746712Y-173958250D02*
X417968712Y-173958250D01*
X419746712Y-172180250D02*
X419746712Y-173958250D01*
X419746712Y-161258250D02*
X419746712Y-163036250D01*
X417968712Y-161258250D02*
X419746712Y-161258250D01*
X407046712Y-161258250D02*
X408824712Y-161258250D01*
X390377976Y-143986266D02*
X390377976Y-142208266D01*
X390377976Y-154908266D02*
X390377976Y-153130266D01*
X392155976Y-154908266D02*
X390377976Y-154908266D01*
X403077976Y-154908266D02*
X401299976Y-154908266D01*
X403077976Y-153130266D02*
X403077976Y-154908266D01*
X403077976Y-142208266D02*
X403077976Y-143986266D01*
X401299976Y-142208266D02*
X403077976Y-142208266D01*
X390377976Y-142208266D02*
X392155976Y-142208266D01*
X257028088Y-142208266D02*
X258806088Y-142208266D01*
X267950088Y-142208266D02*
X269728088Y-142208266D01*
X269728088Y-142208266D02*
X269728088Y-143986266D01*
X269728088Y-153130266D02*
X269728088Y-154908266D01*
X269728088Y-154908266D02*
X267950088Y-154908266D01*
X258806088Y-154908266D02*
X257028088Y-154908266D01*
X257028088Y-154908266D02*
X257028088Y-153130266D01*
X257028088Y-143986266D02*
X257028088Y-142208266D01*
X242740600Y-105886298D02*
X242740600Y-104108298D01*
X242740600Y-116808298D02*
X242740600Y-115030298D01*
X244518600Y-116808298D02*
X242740600Y-116808298D01*
X255440600Y-116808298D02*
X253662600Y-116808298D01*
X255440600Y-115030298D02*
X255440600Y-116808298D01*
X255440600Y-104108298D02*
X255440600Y-105886298D01*
X253662600Y-104108298D02*
X255440600Y-104108298D01*
X242740600Y-104108298D02*
X244518600Y-104108298D01*
X223690616Y-105886298D02*
X223690616Y-104108298D01*
X223690616Y-116808298D02*
X223690616Y-115030298D01*
X225468616Y-116808298D02*
X223690616Y-116808298D01*
X236390616Y-116808298D02*
X234612616Y-116808298D01*
X236390616Y-115030298D02*
X236390616Y-116808298D01*
X236390616Y-104108298D02*
X236390616Y-105886298D01*
X234612616Y-104108298D02*
X236390616Y-104108298D01*
X223690616Y-104108298D02*
X225468616Y-104108298D01*
X204640632Y-105886298D02*
X204640632Y-104108298D01*
X204640632Y-116808298D02*
X204640632Y-115030298D01*
X206418632Y-116808298D02*
X204640632Y-116808298D01*
X217340632Y-116808298D02*
X215562632Y-116808298D01*
X217340632Y-115030298D02*
X217340632Y-116808298D01*
X217340632Y-104108298D02*
X217340632Y-105886298D01*
X215562632Y-104108298D02*
X217340632Y-104108298D01*
X204640632Y-104108298D02*
X206418632Y-104108298D01*
X318940536Y-105886298D02*
X318940536Y-104108298D01*
X318940536Y-116808298D02*
X318940536Y-115030298D01*
X320718536Y-116808298D02*
X318940536Y-116808298D01*
X331640536Y-116808298D02*
X329862536Y-116808298D01*
X331640536Y-115030298D02*
X331640536Y-116808298D01*
X331640536Y-104108298D02*
X331640536Y-105886298D01*
X329862536Y-104108298D02*
X331640536Y-104108298D01*
X318940536Y-104108298D02*
X320718536Y-104108298D01*
X299890552Y-104108298D02*
X301668552Y-104108298D01*
X310812552Y-104108298D02*
X312590552Y-104108298D01*
X312590552Y-104108298D02*
X312590552Y-105886298D01*
X312590552Y-115030298D02*
X312590552Y-116808298D01*
X312590552Y-116808298D02*
X310812552Y-116808298D01*
X301668552Y-116808298D02*
X299890552Y-116808298D01*
X299890552Y-116808298D02*
X299890552Y-115030298D01*
X299890552Y-105886298D02*
X299890552Y-104108298D01*
X280840568Y-104108298D02*
X282618568Y-104108298D01*
X291762568Y-104108298D02*
X293540568Y-104108298D01*
X293540568Y-104108298D02*
X293540568Y-105886298D01*
X293540568Y-115030298D02*
X293540568Y-116808298D01*
X293540568Y-116808298D02*
X291762568Y-116808298D01*
X282618568Y-116808298D02*
X280840568Y-116808298D01*
X280840568Y-116808298D02*
X280840568Y-115030298D01*
X280840568Y-105886298D02*
X280840568Y-104108298D01*
X261790584Y-105886298D02*
X261790584Y-104108298D01*
X261790584Y-116808298D02*
X261790584Y-115030298D01*
X263568584Y-116808298D02*
X261790584Y-116808298D01*
X274490584Y-116808298D02*
X272712584Y-116808298D01*
X274490584Y-115030298D02*
X274490584Y-116808298D01*
X274490584Y-104108298D02*
X274490584Y-105886298D01*
X272712584Y-104108298D02*
X274490584Y-104108298D01*
X261790584Y-104108298D02*
X263568584Y-104108298D01*
X180828309Y-105886391D02*
X180828309Y-104108391D01*
X180828309Y-116808391D02*
X180828309Y-115030391D01*
X182606309Y-116808391D02*
X180828309Y-116808391D01*
X193528309Y-116808391D02*
X191750309Y-116808391D01*
X193528309Y-115030391D02*
X193528309Y-116808391D01*
X193528309Y-104108391D02*
X193528309Y-105886391D01*
X191750309Y-104108391D02*
X193528309Y-104108391D01*
X180828309Y-104108391D02*
X182606309Y-104108391D01*
X180828152Y-123158282D02*
X182606152Y-123158282D01*
X191750152Y-123158282D02*
X193528152Y-123158282D01*
X193528152Y-123158282D02*
X193528152Y-124936282D01*
X193528152Y-134080282D02*
X193528152Y-135858282D01*
X193528152Y-135858282D02*
X191750152Y-135858282D01*
X182606152Y-135858282D02*
X180828152Y-135858282D01*
X180828152Y-135858282D02*
X180828152Y-134080282D01*
X180828152Y-124936282D02*
X180828152Y-123158282D01*
X357040504Y-105886298D02*
X357040504Y-104108298D01*
X357040504Y-116808298D02*
X357040504Y-115030298D01*
X358818504Y-116808298D02*
X357040504Y-116808298D01*
X369740504Y-116808298D02*
X367962504Y-116808298D01*
X369740504Y-115030298D02*
X369740504Y-116808298D01*
X369740504Y-104108298D02*
X369740504Y-105886298D01*
X367962504Y-104108298D02*
X369740504Y-104108298D01*
X357040504Y-104108298D02*
X358818504Y-104108298D01*
X414190456Y-104108298D02*
X415968456Y-104108298D01*
X425112456Y-104108298D02*
X426890456Y-104108298D01*
X426890456Y-104108298D02*
X426890456Y-105886298D01*
X426890456Y-115030298D02*
X426890456Y-116808298D01*
X426890456Y-116808298D02*
X425112456Y-116808298D01*
X415968456Y-116808298D02*
X414190456Y-116808298D01*
X414190456Y-116808298D02*
X414190456Y-115030298D01*
X414190456Y-105886298D02*
X414190456Y-104108298D01*
X452290424Y-104108298D02*
X454068424Y-104108298D01*
X463212424Y-104108298D02*
X464990424Y-104108298D01*
X464990424Y-104108298D02*
X464990424Y-105886298D01*
X464990424Y-115030298D02*
X464990424Y-116808298D01*
X464990424Y-116808298D02*
X463212424Y-116808298D01*
X454068424Y-116808298D02*
X452290424Y-116808298D01*
X452290424Y-116808298D02*
X452290424Y-115030298D01*
X452290424Y-105886298D02*
X452290424Y-104108298D01*
X207021880Y-124936282D02*
X207021880Y-123158282D01*
X207021880Y-135858282D02*
X207021880Y-134080282D01*
X208799880Y-135858282D02*
X207021880Y-135858282D01*
X219721880Y-135858282D02*
X217943880Y-135858282D01*
X219721880Y-134080282D02*
X219721880Y-135858282D01*
X219721880Y-123158282D02*
X219721880Y-124936282D01*
X217943880Y-123158282D02*
X219721880Y-123158282D01*
X207021880Y-123158282D02*
X208799880Y-123158282D01*
X323703032Y-124936282D02*
X323703032Y-123158282D01*
X323703032Y-135858282D02*
X323703032Y-134080282D01*
X325481032Y-135858282D02*
X323703032Y-135858282D01*
X336403032Y-135858282D02*
X334625032Y-135858282D01*
X336403032Y-134080282D02*
X336403032Y-135858282D01*
X336403032Y-123158282D02*
X336403032Y-124936282D01*
X334625032Y-123158282D02*
X336403032Y-123158282D01*
X323703032Y-123158282D02*
X325481032Y-123158282D01*
X266553080Y-124936282D02*
X266553080Y-123158282D01*
X266553080Y-135858282D02*
X266553080Y-134080282D01*
X268331080Y-135858282D02*
X266553080Y-135858282D01*
X279253080Y-135858282D02*
X277475080Y-135858282D01*
X279253080Y-134080282D02*
X279253080Y-135858282D01*
X279253080Y-123158282D02*
X279253080Y-124936282D01*
X277475080Y-123158282D02*
X279253080Y-123158282D01*
X266553080Y-123158282D02*
X268331080Y-123158282D01*
X376090488Y-104108298D02*
X377868488Y-104108298D01*
X387012488Y-104108298D02*
X388790488Y-104108298D01*
X388790488Y-104108298D02*
X388790488Y-105886298D01*
X388790488Y-115030298D02*
X388790488Y-116808298D01*
X388790488Y-116808298D02*
X387012488Y-116808298D01*
X377868488Y-116808298D02*
X376090488Y-116808298D01*
X376090488Y-116808298D02*
X376090488Y-115030298D01*
X376090488Y-105886298D02*
X376090488Y-104108298D01*
X304653048Y-123158282D02*
X306431048Y-123158282D01*
X315575048Y-123158282D02*
X317353048Y-123158282D01*
X317353048Y-123158282D02*
X317353048Y-124936282D01*
X317353048Y-134080282D02*
X317353048Y-135858282D01*
X317353048Y-135858282D02*
X315575048Y-135858282D01*
X306431048Y-135858282D02*
X304653048Y-135858282D01*
X304653048Y-135858282D02*
X304653048Y-134080282D01*
X304653048Y-124936282D02*
X304653048Y-123158282D01*
X285603064Y-124936282D02*
X285603064Y-123158282D01*
X285603064Y-135858282D02*
X285603064Y-134080282D01*
X287381064Y-135858282D02*
X285603064Y-135858282D01*
X298303064Y-135858282D02*
X296525064Y-135858282D01*
X298303064Y-134080282D02*
X298303064Y-135858282D01*
X298303064Y-123158282D02*
X298303064Y-124936282D01*
X296525064Y-123158282D02*
X298303064Y-123158282D01*
X285603064Y-123158282D02*
X287381064Y-123158282D01*
X337990520Y-104108298D02*
X339768520Y-104108298D01*
X348912520Y-104108298D02*
X350690520Y-104108298D01*
X350690520Y-104108298D02*
X350690520Y-105886298D01*
X350690520Y-115030298D02*
X350690520Y-116808298D01*
X350690520Y-116808298D02*
X348912520Y-116808298D01*
X339768520Y-116808298D02*
X337990520Y-116808298D01*
X337990520Y-116808298D02*
X337990520Y-115030298D01*
X337990520Y-105886298D02*
X337990520Y-104108298D01*
X395140472Y-105886298D02*
X395140472Y-104108298D01*
X395140472Y-116808298D02*
X395140472Y-115030298D01*
X396918472Y-116808298D02*
X395140472Y-116808298D01*
X407840472Y-116808298D02*
X406062472Y-116808298D01*
X407840472Y-115030298D02*
X407840472Y-116808298D01*
X407840472Y-104108298D02*
X407840472Y-105886298D01*
X406062472Y-104108298D02*
X407840472Y-104108298D01*
X395140472Y-104108298D02*
X396918472Y-104108298D01*
X247503096Y-124936282D02*
X247503096Y-123158282D01*
X247503096Y-135858282D02*
X247503096Y-134080282D01*
X249281096Y-135858282D02*
X247503096Y-135858282D01*
X260203096Y-135858282D02*
X258425096Y-135858282D01*
X260203096Y-134080282D02*
X260203096Y-135858282D01*
X260203096Y-123158282D02*
X260203096Y-124936282D01*
X258425096Y-123158282D02*
X260203096Y-123158282D01*
X247503096Y-123158282D02*
X249281096Y-123158282D01*
X399902968Y-123158282D02*
X401680968Y-123158282D01*
X410824968Y-123158282D02*
X412602968Y-123158282D01*
X412602968Y-123158282D02*
X412602968Y-124936282D01*
X412602968Y-134080282D02*
X412602968Y-135858282D01*
X412602968Y-135858282D02*
X410824968Y-135858282D01*
X401680968Y-135858282D02*
X399902968Y-135858282D01*
X399902968Y-135858282D02*
X399902968Y-134080282D01*
X399902968Y-124936282D02*
X399902968Y-123158282D01*
X380852984Y-124936282D02*
X380852984Y-123158282D01*
X380852984Y-135858282D02*
X380852984Y-134080282D01*
X382630984Y-135858282D02*
X380852984Y-135858282D01*
X393552984Y-135858282D02*
X391774984Y-135858282D01*
X393552984Y-134080282D02*
X393552984Y-135858282D01*
X393552984Y-123158282D02*
X393552984Y-124936282D01*
X391774984Y-123158282D02*
X393552984Y-123158282D01*
X380852984Y-123158282D02*
X382630984Y-123158282D01*
X342753016Y-123158282D02*
X344531016Y-123158282D01*
X353675016Y-123158282D02*
X355453016Y-123158282D01*
X355453016Y-123158282D02*
X355453016Y-124936282D01*
X355453016Y-134080282D02*
X355453016Y-135858282D01*
X355453016Y-135858282D02*
X353675016Y-135858282D01*
X344531016Y-135858282D02*
X342753016Y-135858282D01*
X342753016Y-135858282D02*
X342753016Y-134080282D01*
X342753016Y-124936282D02*
X342753016Y-123158282D01*
X361803000Y-123158282D02*
X363581000Y-123158282D01*
X372725000Y-123158282D02*
X374503000Y-123158282D01*
X374503000Y-123158282D02*
X374503000Y-124936282D01*
X374503000Y-134080282D02*
X374503000Y-135858282D01*
X374503000Y-135858282D02*
X372725000Y-135858282D01*
X363581000Y-135858282D02*
X361803000Y-135858282D01*
X361803000Y-135858282D02*
X361803000Y-134080282D01*
X361803000Y-124936282D02*
X361803000Y-123158282D01*
X228453112Y-123158282D02*
X230231112Y-123158282D01*
X239375112Y-123158282D02*
X241153112Y-123158282D01*
X241153112Y-123158282D02*
X241153112Y-124936282D01*
X241153112Y-134080282D02*
X241153112Y-135858282D01*
X241153112Y-135858282D02*
X239375112Y-135858282D01*
X230231112Y-135858282D02*
X228453112Y-135858282D01*
X228453112Y-135858282D02*
X228453112Y-134080282D01*
X228453112Y-124936282D02*
X228453112Y-123158282D01*
X271217384Y-161248866D02*
X272995384Y-161248866D01*
X282139384Y-161248866D02*
X283917384Y-161248866D01*
X283917384Y-161248866D02*
X283917384Y-163026866D01*
X283917384Y-172170866D02*
X283917384Y-173948866D01*
X283917384Y-173948866D02*
X282139384Y-173948866D01*
X272995384Y-173948866D02*
X271217384Y-173948866D01*
X271217384Y-173948866D02*
X271217384Y-172170866D01*
X271217384Y-163026866D02*
X271217384Y-161248866D01*
X418952952Y-123158282D02*
X420730952Y-123158282D01*
X429874952Y-123158282D02*
X431652952Y-123158282D01*
X431652952Y-123158282D02*
X431652952Y-124936282D01*
X431652952Y-134080282D02*
X431652952Y-135858282D01*
X431652952Y-135858282D02*
X429874952Y-135858282D01*
X420730952Y-135858282D02*
X418952952Y-135858282D01*
X418952952Y-135858282D02*
X418952952Y-134080282D01*
X418952952Y-124936282D02*
X418952952Y-123158282D01*
X385491984Y-161223466D02*
X387269984Y-161223466D01*
X396413984Y-161223466D02*
X398191984Y-161223466D01*
X398191984Y-161223466D02*
X398191984Y-163001466D01*
X398191984Y-172145466D02*
X398191984Y-173923466D01*
X398191984Y-173923466D02*
X396413984Y-173923466D01*
X387269984Y-173923466D02*
X385491984Y-173923466D01*
X385491984Y-173923466D02*
X385491984Y-172145466D01*
X385491984Y-163001466D02*
X385491984Y-161223466D01*
X445146680Y-123158282D02*
X446924680Y-123158282D01*
X456068680Y-123158282D02*
X457846680Y-123158282D01*
X457846680Y-123158282D02*
X457846680Y-124936282D01*
X457846680Y-134080282D02*
X457846680Y-135858282D01*
X457846680Y-135858282D02*
X456068680Y-135858282D01*
X446924680Y-135858282D02*
X445146680Y-135858282D01*
X445146680Y-135858282D02*
X445146680Y-134080282D01*
X445146680Y-124936282D02*
X445146680Y-123158282D01*
X334158584Y-91708746D02*
X316378584Y-91708746D01*
X316378584Y-91708746D02*
X316378584Y-122188746D01*
X316378584Y-122188746D02*
X334158584Y-122188746D01*
X334158584Y-122188746D02*
X334158584Y-91708746D01*
X318918584Y-91708746D02*
X318918584Y-94248746D01*
X318918584Y-94248746D02*
X316378584Y-94248746D01*
D13*
X324713088Y-161763094D02*
X323913088Y-161763094D01*
X323913088Y-161572618D01*
X323951184Y-161458332D01*
X324027374Y-161382142D01*
X324103564Y-161344046D01*
X324255945Y-161305951D01*
X324370231Y-161305951D01*
X324522612Y-161344046D01*
X324598803Y-161382142D01*
X324674993Y-161458332D01*
X324713088Y-161572618D01*
X324713088Y-161763094D01*
X323913088Y-160582142D02*
X323913088Y-160963094D01*
X324294041Y-161001189D01*
X324255945Y-160963094D01*
X324217850Y-160886904D01*
X324217850Y-160696427D01*
X324255945Y-160620237D01*
X324294041Y-160582142D01*
X324370231Y-160544046D01*
X324560707Y-160544046D01*
X324636898Y-160582142D01*
X324674993Y-160620237D01*
X324713088Y-160696427D01*
X324713088Y-160886904D01*
X324674993Y-160963094D01*
X324636898Y-161001189D01*
X323913088Y-160048808D02*
X323913088Y-159972618D01*
X323951184Y-159896427D01*
X323989279Y-159858332D01*
X324065469Y-159820237D01*
X324217850Y-159782142D01*
X324408326Y-159782142D01*
X324560707Y-159820237D01*
X324636898Y-159858332D01*
X324674993Y-159896427D01*
X324713088Y-159972618D01*
X324713088Y-160048808D01*
X324674993Y-160124999D01*
X324636898Y-160163094D01*
X324560707Y-160201189D01*
X324408326Y-160239285D01*
X324217850Y-160239285D01*
X324065469Y-160201189D01*
X323989279Y-160163094D01*
X323951184Y-160124999D01*
X323913088Y-160048808D01*
D15*
X184621714Y-171357773D02*
X184621714Y-170087773D01*
X185492571Y-171357773D02*
X184839428Y-170632059D01*
X185492571Y-170087773D02*
X184621714Y-170813488D01*
X186798857Y-170511107D02*
X186798857Y-171357773D01*
X186436000Y-170027297D02*
X186073142Y-170934440D01*
X187016571Y-170934440D01*
X187524571Y-170208726D02*
X187597142Y-170148250D01*
X187742285Y-170087773D01*
X188105142Y-170087773D01*
X188250285Y-170148250D01*
X188322857Y-170208726D01*
X188395428Y-170329678D01*
X188395428Y-170450630D01*
X188322857Y-170632059D01*
X187452000Y-171357773D01*
X188395428Y-171357773D01*
X189338857Y-170087773D02*
X189484000Y-170087773D01*
X189629142Y-170148250D01*
X189701714Y-170208726D01*
X189774285Y-170329678D01*
X189846857Y-170571583D01*
X189846857Y-170873964D01*
X189774285Y-171115869D01*
X189701714Y-171236821D01*
X189629142Y-171297297D01*
X189484000Y-171357773D01*
X189338857Y-171357773D01*
X189193714Y-171297297D01*
X189121142Y-171236821D01*
X189048571Y-171115869D01*
X188976000Y-170873964D01*
X188976000Y-170571583D01*
X189048571Y-170329678D01*
X189121142Y-170208726D01*
X189193714Y-170148250D01*
X189338857Y-170087773D01*
D13*
X376894179Y-157612246D02*
X376894179Y-156612246D01*
X376894179Y-157088437D02*
X377465607Y-157088437D01*
X377465607Y-157612246D02*
X377465607Y-156612246D01*
X378465607Y-157612246D02*
X377894179Y-157612246D01*
X378179893Y-157612246D02*
X378179893Y-156612246D01*
X378084655Y-156755104D01*
X377989417Y-156850342D01*
X377894179Y-156897961D01*
X381656679Y-117162746D02*
X381656679Y-116162746D01*
X381656679Y-116638937D02*
X382228107Y-116638937D01*
X382228107Y-117162746D02*
X382228107Y-116162746D01*
X382656679Y-116257985D02*
X382704298Y-116210366D01*
X382799536Y-116162746D01*
X383037631Y-116162746D01*
X383132869Y-116210366D01*
X383180488Y-116257985D01*
X383228107Y-116353223D01*
X383228107Y-116448461D01*
X383180488Y-116591318D01*
X382609060Y-117162746D01*
X383228107Y-117162746D01*
X450731979Y-136212746D02*
X450731979Y-135212746D01*
X450731979Y-135688937D02*
X451303407Y-135688937D01*
X451303407Y-136212746D02*
X451303407Y-135212746D01*
X451970074Y-135212746D02*
X452065312Y-135212746D01*
X452160550Y-135260366D01*
X452208169Y-135307985D01*
X452255788Y-135403223D01*
X452303407Y-135593699D01*
X452303407Y-135831794D01*
X452255788Y-136022270D01*
X452208169Y-136117508D01*
X452160550Y-136165127D01*
X452065312Y-136212746D01*
X451970074Y-136212746D01*
X451874836Y-136165127D01*
X451827217Y-136117508D01*
X451779598Y-136022270D01*
X451731979Y-135831794D01*
X451731979Y-135593699D01*
X451779598Y-135403223D01*
X451827217Y-135307985D01*
X451874836Y-135260366D01*
X451970074Y-135212746D01*
X286359088Y-162017094D02*
X285559088Y-162017094D01*
X285559088Y-161826618D01*
X285597184Y-161712332D01*
X285673374Y-161636142D01*
X285749564Y-161598046D01*
X285901945Y-161559951D01*
X286016231Y-161559951D01*
X286168612Y-161598046D01*
X286244803Y-161636142D01*
X286320993Y-161712332D01*
X286359088Y-161826618D01*
X286359088Y-162017094D01*
X285825755Y-160874237D02*
X286359088Y-160874237D01*
X285520993Y-161064713D02*
X286092422Y-161255189D01*
X286092422Y-160759951D01*
X286359088Y-160417094D02*
X286359088Y-160264713D01*
X286320993Y-160188523D01*
X286282898Y-160150427D01*
X286168612Y-160074237D01*
X286016231Y-160036142D01*
X285711469Y-160036142D01*
X285635279Y-160074237D01*
X285597184Y-160112332D01*
X285559088Y-160188523D01*
X285559088Y-160340904D01*
X285597184Y-160417094D01*
X285635279Y-160455189D01*
X285711469Y-160493285D01*
X285901945Y-160493285D01*
X285978136Y-160455189D01*
X286016231Y-160417094D01*
X286054326Y-160340904D01*
X286054326Y-160188523D01*
X286016231Y-160112332D01*
X285978136Y-160074237D01*
X285901945Y-160036142D01*
D15*
X432977372Y-171357773D02*
X432977372Y-170087773D01*
X433848229Y-171357773D02*
X433195086Y-170632059D01*
X433848229Y-170087773D02*
X432977372Y-170813488D01*
X435154515Y-170511107D02*
X435154515Y-171357773D01*
X434791658Y-170027297D02*
X434428801Y-170934440D01*
X435372229Y-170934440D01*
X435807658Y-170087773D02*
X436823658Y-170087773D01*
X436170515Y-171357773D01*
D13*
X310231879Y-136212746D02*
X310231879Y-135212746D01*
X310231879Y-135688937D02*
X310803307Y-135688937D01*
X310803307Y-136212746D02*
X310803307Y-135212746D01*
X311184260Y-135212746D02*
X311803307Y-135212746D01*
X311469974Y-135593699D01*
X311612831Y-135593699D01*
X311708069Y-135641318D01*
X311755688Y-135688937D01*
X311803307Y-135784175D01*
X311803307Y-136022270D01*
X311755688Y-136117508D01*
X311708069Y-136165127D01*
X311612831Y-136212746D01*
X311327117Y-136212746D01*
X311231879Y-136165127D01*
X311184260Y-136117508D01*
X400506688Y-162042494D02*
X399706688Y-162042494D01*
X399706688Y-161852018D01*
X399744784Y-161737732D01*
X399820974Y-161661542D01*
X399897164Y-161623446D01*
X400049545Y-161585351D01*
X400163831Y-161585351D01*
X400316212Y-161623446D01*
X400392403Y-161661542D01*
X400468593Y-161737732D01*
X400506688Y-161852018D01*
X400506688Y-162042494D01*
X399706688Y-160861542D02*
X399706688Y-161242494D01*
X400087641Y-161280589D01*
X400049545Y-161242494D01*
X400011450Y-161166304D01*
X400011450Y-160975827D01*
X400049545Y-160899637D01*
X400087641Y-160861542D01*
X400163831Y-160823446D01*
X400354307Y-160823446D01*
X400430498Y-160861542D01*
X400468593Y-160899637D01*
X400506688Y-160975827D01*
X400506688Y-161166304D01*
X400468593Y-161242494D01*
X400430498Y-161280589D01*
X400506688Y-160061542D02*
X400506688Y-160518685D01*
X400506688Y-160290113D02*
X399706688Y-160290113D01*
X399820974Y-160366304D01*
X399897164Y-160442494D01*
X399935260Y-160518685D01*
X210219379Y-117150046D02*
X210219379Y-116150046D01*
X210219379Y-116626237D02*
X210790807Y-116626237D01*
X210790807Y-117150046D02*
X210790807Y-116150046D01*
X211743188Y-116150046D02*
X211266998Y-116150046D01*
X211219379Y-116626237D01*
X211266998Y-116578618D01*
X211362236Y-116530999D01*
X211600331Y-116530999D01*
X211695569Y-116578618D01*
X211743188Y-116626237D01*
X211790807Y-116721475D01*
X211790807Y-116959570D01*
X211743188Y-117054808D01*
X211695569Y-117102427D01*
X211600331Y-117150046D01*
X211362236Y-117150046D01*
X211266998Y-117102427D01*
X211219379Y-117054808D01*
D15*
X456789852Y-152307789D02*
X456789852Y-151037789D01*
X457660709Y-152307789D02*
X457007566Y-151582075D01*
X457660709Y-151037789D02*
X456789852Y-151763504D01*
X458966995Y-151461123D02*
X458966995Y-152307789D01*
X458604138Y-150977313D02*
X458241281Y-151884456D01*
X459184709Y-151884456D01*
X459982995Y-151582075D02*
X459837852Y-151521599D01*
X459765281Y-151461123D01*
X459692709Y-151340170D01*
X459692709Y-151279694D01*
X459765281Y-151158742D01*
X459837852Y-151098266D01*
X459982995Y-151037789D01*
X460273281Y-151037789D01*
X460418424Y-151098266D01*
X460490995Y-151158742D01*
X460563566Y-151279694D01*
X460563566Y-151340170D01*
X460490995Y-151461123D01*
X460418424Y-151521599D01*
X460273281Y-151582075D01*
X459982995Y-151582075D01*
X459837852Y-151642551D01*
X459765281Y-151703027D01*
X459692709Y-151823980D01*
X459692709Y-152065885D01*
X459765281Y-152186837D01*
X459837852Y-152247313D01*
X459982995Y-152307789D01*
X460273281Y-152307789D01*
X460418424Y-152247313D01*
X460490995Y-152186837D01*
X460563566Y-152065885D01*
X460563566Y-151823980D01*
X460490995Y-151703027D01*
X460418424Y-151642551D01*
X460273281Y-151582075D01*
D13*
X243544179Y-155262746D02*
X243544179Y-154262746D01*
X243544179Y-154738937D02*
X244115607Y-154738937D01*
X244115607Y-155262746D02*
X244115607Y-154262746D01*
X245020369Y-154596080D02*
X245020369Y-155262746D01*
X244782274Y-154215127D02*
X244544179Y-154929413D01*
X245163226Y-154929413D01*
D15*
X216283804Y-152307789D02*
X216283804Y-151037789D01*
X217154661Y-152307789D02*
X216501518Y-151582075D01*
X217154661Y-151037789D02*
X216283804Y-151763504D01*
X217735233Y-151158742D02*
X217807804Y-151098266D01*
X217952947Y-151037789D01*
X218315804Y-151037789D01*
X218460947Y-151098266D01*
X218533518Y-151158742D01*
X218606090Y-151279694D01*
X218606090Y-151400646D01*
X218533518Y-151582075D01*
X217662661Y-152307789D01*
X218606090Y-152307789D01*
X219331804Y-152307789D02*
X219622090Y-152307789D01*
X219767233Y-152247313D01*
X219839804Y-152186837D01*
X219984947Y-152005408D01*
X220057518Y-151763504D01*
X220057518Y-151279694D01*
X219984947Y-151158742D01*
X219912376Y-151098266D01*
X219767233Y-151037789D01*
X219476947Y-151037789D01*
X219331804Y-151098266D01*
X219259233Y-151158742D01*
X219186661Y-151279694D01*
X219186661Y-151582075D01*
X219259233Y-151703027D01*
X219331804Y-151763504D01*
X219476947Y-151823980D01*
X219767233Y-151823980D01*
X219912376Y-151763504D01*
X219984947Y-151703027D01*
X220057518Y-151582075D01*
X375827420Y-152307789D02*
X375827420Y-151037789D01*
X376698277Y-152307789D02*
X376045134Y-151582075D01*
X376698277Y-151037789D02*
X375827420Y-151763504D01*
X377206277Y-151037789D02*
X378149706Y-151037789D01*
X377641706Y-151521599D01*
X377859420Y-151521599D01*
X378004563Y-151582075D01*
X378077134Y-151642551D01*
X378149706Y-151763504D01*
X378149706Y-152065885D01*
X378077134Y-152186837D01*
X378004563Y-152247313D01*
X377859420Y-152307789D01*
X377423992Y-152307789D01*
X377278849Y-152247313D01*
X377206277Y-152186837D01*
X378657706Y-151037789D02*
X379673706Y-151037789D01*
X379020563Y-152307789D01*
X356777436Y-152307789D02*
X356777436Y-151037789D01*
X357648293Y-152307789D02*
X356995150Y-151582075D01*
X357648293Y-151037789D02*
X356777436Y-151763504D01*
X358156293Y-151037789D02*
X359099722Y-151037789D01*
X358591722Y-151521599D01*
X358809436Y-151521599D01*
X358954579Y-151582075D01*
X359027150Y-151642551D01*
X359099722Y-151763504D01*
X359099722Y-152065885D01*
X359027150Y-152186837D01*
X358954579Y-152247313D01*
X358809436Y-152307789D01*
X358374008Y-152307789D01*
X358228865Y-152247313D01*
X358156293Y-152186837D01*
X360406008Y-151037789D02*
X360115722Y-151037789D01*
X359970579Y-151098266D01*
X359898008Y-151158742D01*
X359752865Y-151340170D01*
X359680293Y-151582075D01*
X359680293Y-152065885D01*
X359752865Y-152186837D01*
X359825436Y-152247313D01*
X359970579Y-152307789D01*
X360260865Y-152307789D01*
X360406008Y-152247313D01*
X360478579Y-152186837D01*
X360551150Y-152065885D01*
X360551150Y-151763504D01*
X360478579Y-151642551D01*
X360406008Y-151582075D01*
X360260865Y-151521599D01*
X359970579Y-151521599D01*
X359825436Y-151582075D01*
X359752865Y-151642551D01*
X359680293Y-151763504D01*
X242477532Y-152307789D02*
X242477532Y-151037789D01*
X243348389Y-152307789D02*
X242695246Y-151582075D01*
X243348389Y-151037789D02*
X242477532Y-151763504D01*
X243856389Y-151037789D02*
X244799818Y-151037789D01*
X244291818Y-151521599D01*
X244509532Y-151521599D01*
X244654675Y-151582075D01*
X244727246Y-151642551D01*
X244799818Y-151763504D01*
X244799818Y-152065885D01*
X244727246Y-152186837D01*
X244654675Y-152247313D01*
X244509532Y-152307789D01*
X244074104Y-152307789D01*
X243928961Y-152247313D01*
X243856389Y-152186837D01*
X245743246Y-151037789D02*
X245888389Y-151037789D01*
X246033532Y-151098266D01*
X246106104Y-151158742D01*
X246178675Y-151279694D01*
X246251246Y-151521599D01*
X246251246Y-151823980D01*
X246178675Y-152065885D01*
X246106104Y-152186837D01*
X246033532Y-152247313D01*
X245888389Y-152307789D01*
X245743246Y-152307789D01*
X245598104Y-152247313D01*
X245525532Y-152186837D01*
X245452961Y-152065885D01*
X245380389Y-151823980D01*
X245380389Y-151521599D01*
X245452961Y-151279694D01*
X245525532Y-151158742D01*
X245598104Y-151098266D01*
X245743246Y-151037789D01*
X254363924Y-171357773D02*
X254363924Y-170087773D01*
X255234781Y-171357773D02*
X254581638Y-170632059D01*
X255234781Y-170087773D02*
X254363924Y-170813488D01*
X256541067Y-170511107D02*
X256541067Y-171357773D01*
X256178210Y-170027297D02*
X255815353Y-170934440D01*
X256758781Y-170934440D01*
X257992496Y-170511107D02*
X257992496Y-171357773D01*
X257629638Y-170027297D02*
X257266781Y-170934440D01*
X258210210Y-170934440D01*
X413927388Y-152307789D02*
X413927388Y-151037789D01*
X414798245Y-152307789D02*
X414145102Y-151582075D01*
X414798245Y-151037789D02*
X413927388Y-151763504D01*
X415306245Y-151037789D02*
X416249674Y-151037789D01*
X415741674Y-151521599D01*
X415959388Y-151521599D01*
X416104531Y-151582075D01*
X416177102Y-151642551D01*
X416249674Y-151763504D01*
X416249674Y-152065885D01*
X416177102Y-152186837D01*
X416104531Y-152247313D01*
X415959388Y-152307789D01*
X415523960Y-152307789D01*
X415378817Y-152247313D01*
X415306245Y-152186837D01*
X416975388Y-152307789D02*
X417265674Y-152307789D01*
X417410817Y-152247313D01*
X417483388Y-152186837D01*
X417628531Y-152005408D01*
X417701102Y-151763504D01*
X417701102Y-151279694D01*
X417628531Y-151158742D01*
X417555960Y-151098266D01*
X417410817Y-151037789D01*
X417120531Y-151037789D01*
X416975388Y-151098266D01*
X416902817Y-151158742D01*
X416830245Y-151279694D01*
X416830245Y-151582075D01*
X416902817Y-151703027D01*
X416975388Y-151763504D01*
X417120531Y-151823980D01*
X417410817Y-151823980D01*
X417555960Y-151763504D01*
X417628531Y-151703027D01*
X417701102Y-151582075D01*
X437739868Y-114207821D02*
X437739868Y-112937821D01*
X438610725Y-114207821D02*
X437957582Y-113482107D01*
X438610725Y-112937821D02*
X437739868Y-113663536D01*
X439191297Y-113058774D02*
X439263868Y-112998298D01*
X439409011Y-112937821D01*
X439771868Y-112937821D01*
X439917011Y-112998298D01*
X439989582Y-113058774D01*
X440062154Y-113179726D01*
X440062154Y-113300678D01*
X439989582Y-113482107D01*
X439118725Y-114207821D01*
X440062154Y-114207821D01*
X440570154Y-112937821D02*
X441586154Y-112937821D01*
X440933011Y-114207821D01*
X337727452Y-152307789D02*
X337727452Y-151037789D01*
X338598309Y-152307789D02*
X337945166Y-151582075D01*
X338598309Y-151037789D02*
X337727452Y-151763504D01*
X339106309Y-151037789D02*
X340049738Y-151037789D01*
X339541738Y-151521599D01*
X339759452Y-151521599D01*
X339904595Y-151582075D01*
X339977166Y-151642551D01*
X340049738Y-151763504D01*
X340049738Y-152065885D01*
X339977166Y-152186837D01*
X339904595Y-152247313D01*
X339759452Y-152307789D01*
X339324024Y-152307789D01*
X339178881Y-152247313D01*
X339106309Y-152186837D01*
X341428595Y-151037789D02*
X340702881Y-151037789D01*
X340630309Y-151642551D01*
X340702881Y-151582075D01*
X340848024Y-151521599D01*
X341210881Y-151521599D01*
X341356024Y-151582075D01*
X341428595Y-151642551D01*
X341501166Y-151763504D01*
X341501166Y-152065885D01*
X341428595Y-152186837D01*
X341356024Y-152247313D01*
X341210881Y-152307789D01*
X340848024Y-152307789D01*
X340702881Y-152247313D01*
X340630309Y-152186837D01*
X185327580Y-152307789D02*
X185327580Y-151037789D01*
X186198437Y-152307789D02*
X185545294Y-151582075D01*
X186198437Y-151037789D02*
X185327580Y-151763504D01*
X186779009Y-151158742D02*
X186851580Y-151098266D01*
X186996723Y-151037789D01*
X187359580Y-151037789D01*
X187504723Y-151098266D01*
X187577294Y-151158742D01*
X187649866Y-151279694D01*
X187649866Y-151400646D01*
X187577294Y-151582075D01*
X186706437Y-152307789D01*
X187649866Y-152307789D01*
X188520723Y-151582075D02*
X188375580Y-151521599D01*
X188303009Y-151461123D01*
X188230437Y-151340170D01*
X188230437Y-151279694D01*
X188303009Y-151158742D01*
X188375580Y-151098266D01*
X188520723Y-151037789D01*
X188811009Y-151037789D01*
X188956152Y-151098266D01*
X189028723Y-151158742D01*
X189101294Y-151279694D01*
X189101294Y-151340170D01*
X189028723Y-151461123D01*
X188956152Y-151521599D01*
X188811009Y-151582075D01*
X188520723Y-151582075D01*
X188375580Y-151642551D01*
X188303009Y-151703027D01*
X188230437Y-151823980D01*
X188230437Y-152065885D01*
X188303009Y-152186837D01*
X188375580Y-152247313D01*
X188520723Y-152307789D01*
X188811009Y-152307789D01*
X188956152Y-152247313D01*
X189028723Y-152186837D01*
X189101294Y-152065885D01*
X189101294Y-151823980D01*
X189028723Y-151703027D01*
X188956152Y-151642551D01*
X188811009Y-151582075D01*
X318677468Y-152307789D02*
X318677468Y-151037789D01*
X319548325Y-152307789D02*
X318895182Y-151582075D01*
X319548325Y-151037789D02*
X318677468Y-151763504D01*
X320056325Y-151037789D02*
X320999754Y-151037789D01*
X320491754Y-151521599D01*
X320709468Y-151521599D01*
X320854611Y-151582075D01*
X320927182Y-151642551D01*
X320999754Y-151763504D01*
X320999754Y-152065885D01*
X320927182Y-152186837D01*
X320854611Y-152247313D01*
X320709468Y-152307789D01*
X320274040Y-152307789D01*
X320128897Y-152247313D01*
X320056325Y-152186837D01*
X322306040Y-151461123D02*
X322306040Y-152307789D01*
X321943182Y-150977313D02*
X321580325Y-151884456D01*
X322523754Y-151884456D01*
X435358620Y-152307789D02*
X435358620Y-151037789D01*
X436229477Y-152307789D02*
X435576334Y-151582075D01*
X436229477Y-151037789D02*
X435358620Y-151763504D01*
X437535763Y-151461123D02*
X437535763Y-152307789D01*
X437172906Y-150977313D02*
X436810049Y-151884456D01*
X437753477Y-151884456D01*
X438624334Y-151037789D02*
X438769477Y-151037789D01*
X438914620Y-151098266D01*
X438987192Y-151158742D01*
X439059763Y-151279694D01*
X439132334Y-151521599D01*
X439132334Y-151823980D01*
X439059763Y-152065885D01*
X438987192Y-152186837D01*
X438914620Y-152247313D01*
X438769477Y-152307789D01*
X438624334Y-152307789D01*
X438479192Y-152247313D01*
X438406620Y-152186837D01*
X438334049Y-152065885D01*
X438261477Y-151823980D01*
X438261477Y-151521599D01*
X438334049Y-151279694D01*
X438406620Y-151158742D01*
X438479192Y-151098266D01*
X438624334Y-151037789D01*
X299627484Y-152307789D02*
X299627484Y-151037789D01*
X300498341Y-152307789D02*
X299845198Y-151582075D01*
X300498341Y-151037789D02*
X299627484Y-151763504D01*
X301006341Y-151037789D02*
X301949770Y-151037789D01*
X301441770Y-151521599D01*
X301659484Y-151521599D01*
X301804627Y-151582075D01*
X301877198Y-151642551D01*
X301949770Y-151763504D01*
X301949770Y-152065885D01*
X301877198Y-152186837D01*
X301804627Y-152247313D01*
X301659484Y-152307789D01*
X301224056Y-152307789D01*
X301078913Y-152247313D01*
X301006341Y-152186837D01*
X302457770Y-151037789D02*
X303401198Y-151037789D01*
X302893198Y-151521599D01*
X303110913Y-151521599D01*
X303256056Y-151582075D01*
X303328627Y-151642551D01*
X303401198Y-151763504D01*
X303401198Y-152065885D01*
X303328627Y-152186837D01*
X303256056Y-152247313D01*
X303110913Y-152307789D01*
X302675484Y-152307789D01*
X302530341Y-152247313D01*
X302457770Y-152186837D01*
X232952540Y-171357773D02*
X232952540Y-170087773D01*
X233823397Y-171357773D02*
X233170254Y-170632059D01*
X233823397Y-170087773D02*
X232952540Y-170813488D01*
X235129683Y-170511107D02*
X235129683Y-171357773D01*
X234766826Y-170027297D02*
X234403969Y-170934440D01*
X235347397Y-170934440D01*
X235782826Y-170087773D02*
X236726254Y-170087773D01*
X236218254Y-170571583D01*
X236435969Y-170571583D01*
X236581112Y-170632059D01*
X236653683Y-170692535D01*
X236726254Y-170813488D01*
X236726254Y-171115869D01*
X236653683Y-171236821D01*
X236581112Y-171297297D01*
X236435969Y-171357773D01*
X236000540Y-171357773D01*
X235855397Y-171297297D01*
X235782826Y-171236821D01*
X280577500Y-152307789D02*
X280577500Y-151037789D01*
X281448357Y-152307789D02*
X280795214Y-151582075D01*
X281448357Y-151037789D02*
X280577500Y-151763504D01*
X281956357Y-151037789D02*
X282899786Y-151037789D01*
X282391786Y-151521599D01*
X282609500Y-151521599D01*
X282754643Y-151582075D01*
X282827214Y-151642551D01*
X282899786Y-151763504D01*
X282899786Y-152065885D01*
X282827214Y-152186837D01*
X282754643Y-152247313D01*
X282609500Y-152307789D01*
X282174072Y-152307789D01*
X282028929Y-152247313D01*
X281956357Y-152186837D01*
X283480357Y-151158742D02*
X283552929Y-151098266D01*
X283698072Y-151037789D01*
X284060929Y-151037789D01*
X284206072Y-151098266D01*
X284278643Y-151158742D01*
X284351214Y-151279694D01*
X284351214Y-151400646D01*
X284278643Y-151582075D01*
X283407786Y-152307789D01*
X284351214Y-152307789D01*
X411546140Y-171357773D02*
X411546140Y-170087773D01*
X412416997Y-171357773D02*
X411763854Y-170632059D01*
X412416997Y-170087773D02*
X411546140Y-170813488D01*
X413723283Y-170511107D02*
X413723283Y-171357773D01*
X413360426Y-170027297D02*
X412997569Y-170934440D01*
X413940997Y-170934440D01*
X415174712Y-170087773D02*
X414884426Y-170087773D01*
X414739283Y-170148250D01*
X414666712Y-170208726D01*
X414521569Y-170390154D01*
X414448997Y-170632059D01*
X414448997Y-171115869D01*
X414521569Y-171236821D01*
X414594140Y-171297297D01*
X414739283Y-171357773D01*
X415029569Y-171357773D01*
X415174712Y-171297297D01*
X415247283Y-171236821D01*
X415319854Y-171115869D01*
X415319854Y-170813488D01*
X415247283Y-170692535D01*
X415174712Y-170632059D01*
X415029569Y-170571583D01*
X414739283Y-170571583D01*
X414594140Y-170632059D01*
X414521569Y-170692535D01*
X414448997Y-170813488D01*
X394877404Y-152307789D02*
X394877404Y-151037789D01*
X395748261Y-152307789D02*
X395095118Y-151582075D01*
X395748261Y-151037789D02*
X394877404Y-151763504D01*
X396256261Y-151037789D02*
X397199690Y-151037789D01*
X396691690Y-151521599D01*
X396909404Y-151521599D01*
X397054547Y-151582075D01*
X397127118Y-151642551D01*
X397199690Y-151763504D01*
X397199690Y-152065885D01*
X397127118Y-152186837D01*
X397054547Y-152247313D01*
X396909404Y-152307789D01*
X396473976Y-152307789D01*
X396328833Y-152247313D01*
X396256261Y-152186837D01*
X398070547Y-151582075D02*
X397925404Y-151521599D01*
X397852833Y-151461123D01*
X397780261Y-151340170D01*
X397780261Y-151279694D01*
X397852833Y-151158742D01*
X397925404Y-151098266D01*
X398070547Y-151037789D01*
X398360833Y-151037789D01*
X398505976Y-151098266D01*
X398578547Y-151158742D01*
X398651118Y-151279694D01*
X398651118Y-151340170D01*
X398578547Y-151461123D01*
X398505976Y-151521599D01*
X398360833Y-151582075D01*
X398070547Y-151582075D01*
X397925404Y-151642551D01*
X397852833Y-151703027D01*
X397780261Y-151823980D01*
X397780261Y-152065885D01*
X397852833Y-152186837D01*
X397925404Y-152247313D01*
X398070547Y-152307789D01*
X398360833Y-152307789D01*
X398505976Y-152247313D01*
X398578547Y-152186837D01*
X398651118Y-152065885D01*
X398651118Y-151823980D01*
X398578547Y-151703027D01*
X398505976Y-151642551D01*
X398360833Y-151582075D01*
X261527516Y-152307789D02*
X261527516Y-151037789D01*
X262398373Y-152307789D02*
X261745230Y-151582075D01*
X262398373Y-151037789D02*
X261527516Y-151763504D01*
X262906373Y-151037789D02*
X263849802Y-151037789D01*
X263341802Y-151521599D01*
X263559516Y-151521599D01*
X263704659Y-151582075D01*
X263777230Y-151642551D01*
X263849802Y-151763504D01*
X263849802Y-152065885D01*
X263777230Y-152186837D01*
X263704659Y-152247313D01*
X263559516Y-152307789D01*
X263124088Y-152307789D01*
X262978945Y-152247313D01*
X262906373Y-152186837D01*
X265301230Y-152307789D02*
X264430373Y-152307789D01*
X264865802Y-152307789D02*
X264865802Y-151037789D01*
X264720659Y-151219218D01*
X264575516Y-151340170D01*
X264430373Y-151400646D01*
X332964956Y-171357773D02*
X332964956Y-170087773D01*
X333835813Y-171357773D02*
X333182670Y-170632059D01*
X333835813Y-170087773D02*
X332964956Y-170813488D01*
X335142099Y-170511107D02*
X335142099Y-171357773D01*
X334779242Y-170027297D02*
X334416385Y-170934440D01*
X335359813Y-170934440D01*
X336666099Y-170087773D02*
X335940385Y-170087773D01*
X335867813Y-170692535D01*
X335940385Y-170632059D01*
X336085528Y-170571583D01*
X336448385Y-170571583D01*
X336593528Y-170632059D01*
X336666099Y-170692535D01*
X336738670Y-170813488D01*
X336738670Y-171115869D01*
X336666099Y-171236821D01*
X336593528Y-171297297D01*
X336448385Y-171357773D01*
X336085528Y-171357773D01*
X335940385Y-171297297D01*
X335867813Y-171236821D01*
X306654012Y-171348389D02*
X306654012Y-170078389D01*
X307524869Y-171348389D02*
X306871726Y-170622675D01*
X307524869Y-170078389D02*
X306654012Y-170804104D01*
X308903726Y-170078389D02*
X308178012Y-170078389D01*
X308105441Y-170683151D01*
X308178012Y-170622675D01*
X308323155Y-170562199D01*
X308686012Y-170562199D01*
X308831155Y-170622675D01*
X308903726Y-170683151D01*
X308976298Y-170804104D01*
X308976298Y-171106485D01*
X308903726Y-171227437D01*
X308831155Y-171287913D01*
X308686012Y-171348389D01*
X308323155Y-171348389D01*
X308178012Y-171287913D01*
X308105441Y-171227437D01*
X309919726Y-170078389D02*
X310064869Y-170078389D01*
X310210012Y-170138866D01*
X310282584Y-170199342D01*
X310355155Y-170320294D01*
X310427726Y-170562199D01*
X310427726Y-170864580D01*
X310355155Y-171106485D01*
X310282584Y-171227437D01*
X310210012Y-171287913D01*
X310064869Y-171348389D01*
X309919726Y-171348389D01*
X309774584Y-171287913D01*
X309702012Y-171227437D01*
X309629441Y-171106485D01*
X309556869Y-170864580D01*
X309556869Y-170562199D01*
X309629441Y-170320294D01*
X309702012Y-170199342D01*
X309774584Y-170138866D01*
X309919726Y-170078389D01*
X353190441Y-171348389D02*
X353190441Y-170078389D01*
X354061298Y-171348389D02*
X353408155Y-170622675D01*
X354061298Y-170078389D02*
X353190441Y-170804104D01*
X355367584Y-170501723D02*
X355367584Y-171348389D01*
X355004726Y-170017913D02*
X354641869Y-170925056D01*
X355585298Y-170925056D01*
X356891584Y-170078389D02*
X356165869Y-170078389D01*
X356093298Y-170683151D01*
X356165869Y-170622675D01*
X356311012Y-170562199D01*
X356673869Y-170562199D01*
X356819012Y-170622675D01*
X356891584Y-170683151D01*
X356964155Y-170804104D01*
X356964155Y-171106485D01*
X356891584Y-171227437D01*
X356819012Y-171287913D01*
X356673869Y-171348389D01*
X356311012Y-171348389D01*
X356165869Y-171287913D01*
X356093298Y-171227437D01*
X357617298Y-171227437D02*
X357689869Y-171287913D01*
X357617298Y-171348389D01*
X357544726Y-171287913D01*
X357617298Y-171227437D01*
X357617298Y-171348389D01*
X358270441Y-170199342D02*
X358343012Y-170138866D01*
X358488155Y-170078389D01*
X358851012Y-170078389D01*
X358996155Y-170138866D01*
X359068726Y-170199342D01*
X359141298Y-170320294D01*
X359141298Y-170441246D01*
X359068726Y-170622675D01*
X358197869Y-171348389D01*
X359141298Y-171348389D01*
X247965742Y-114207821D02*
X247965742Y-112937821D01*
X248836600Y-114207821D02*
X248183457Y-113482107D01*
X248836600Y-112937821D02*
X247965742Y-113663536D01*
X249344600Y-112937821D02*
X250288028Y-112937821D01*
X249780028Y-113421631D01*
X249997742Y-113421631D01*
X250142885Y-113482107D01*
X250215457Y-113542583D01*
X250288028Y-113663536D01*
X250288028Y-113965917D01*
X250215457Y-114086869D01*
X250142885Y-114147345D01*
X249997742Y-114207821D01*
X249562314Y-114207821D01*
X249417171Y-114147345D01*
X249344600Y-114086869D01*
X228915758Y-114207821D02*
X228915758Y-112937821D01*
X229786616Y-114207821D02*
X229133473Y-113482107D01*
X229786616Y-112937821D02*
X228915758Y-113663536D01*
X230367187Y-113058774D02*
X230439758Y-112998298D01*
X230584901Y-112937821D01*
X230947758Y-112937821D01*
X231092901Y-112998298D01*
X231165473Y-113058774D01*
X231238044Y-113179726D01*
X231238044Y-113300678D01*
X231165473Y-113482107D01*
X230294616Y-114207821D01*
X231238044Y-114207821D01*
X209865774Y-114207821D02*
X209865774Y-112937821D01*
X210736632Y-114207821D02*
X210083489Y-113482107D01*
X210736632Y-112937821D02*
X209865774Y-113663536D01*
X212188060Y-114207821D02*
X211317203Y-114207821D01*
X211752632Y-114207821D02*
X211752632Y-112937821D01*
X211607489Y-113119250D01*
X211462346Y-113240202D01*
X211317203Y-113300678D01*
X324165678Y-114207821D02*
X324165678Y-112937821D01*
X325036536Y-114207821D02*
X324383393Y-113482107D01*
X325036536Y-112937821D02*
X324165678Y-113663536D01*
X325544536Y-112937821D02*
X326560536Y-112937821D01*
X325907393Y-114207821D01*
X305115694Y-114207821D02*
X305115694Y-112937821D01*
X305986552Y-114207821D02*
X305333409Y-113482107D01*
X305986552Y-112937821D02*
X305115694Y-113663536D01*
X307292837Y-112937821D02*
X307002552Y-112937821D01*
X306857409Y-112998298D01*
X306784837Y-113058774D01*
X306639694Y-113240202D01*
X306567123Y-113482107D01*
X306567123Y-113965917D01*
X306639694Y-114086869D01*
X306712266Y-114147345D01*
X306857409Y-114207821D01*
X307147694Y-114207821D01*
X307292837Y-114147345D01*
X307365409Y-114086869D01*
X307437980Y-113965917D01*
X307437980Y-113663536D01*
X307365409Y-113542583D01*
X307292837Y-113482107D01*
X307147694Y-113421631D01*
X306857409Y-113421631D01*
X306712266Y-113482107D01*
X306639694Y-113542583D01*
X306567123Y-113663536D01*
X286065710Y-114207821D02*
X286065710Y-112937821D01*
X286936568Y-114207821D02*
X286283425Y-113482107D01*
X286936568Y-112937821D02*
X286065710Y-113663536D01*
X288315425Y-112937821D02*
X287589710Y-112937821D01*
X287517139Y-113542583D01*
X287589710Y-113482107D01*
X287734853Y-113421631D01*
X288097710Y-113421631D01*
X288242853Y-113482107D01*
X288315425Y-113542583D01*
X288387996Y-113663536D01*
X288387996Y-113965917D01*
X288315425Y-114086869D01*
X288242853Y-114147345D01*
X288097710Y-114207821D01*
X287734853Y-114207821D01*
X287589710Y-114147345D01*
X287517139Y-114086869D01*
X267015726Y-114207821D02*
X267015726Y-112937821D01*
X267886584Y-114207821D02*
X267233441Y-113482107D01*
X267886584Y-112937821D02*
X267015726Y-113663536D01*
X269192869Y-113361155D02*
X269192869Y-114207821D01*
X268830012Y-112877345D02*
X268467155Y-113784488D01*
X269410584Y-113784488D01*
X186053451Y-114207914D02*
X186053451Y-112937914D01*
X186924309Y-114207914D02*
X186271166Y-113482200D01*
X186924309Y-112937914D02*
X186053451Y-113663629D01*
X187867737Y-112937914D02*
X188012880Y-112937914D01*
X188158023Y-112998391D01*
X188230594Y-113058867D01*
X188303166Y-113179819D01*
X188375737Y-113421724D01*
X188375737Y-113724105D01*
X188303166Y-113966010D01*
X188230594Y-114086962D01*
X188158023Y-114147438D01*
X188012880Y-114207914D01*
X187867737Y-114207914D01*
X187722594Y-114147438D01*
X187650023Y-114086962D01*
X187577451Y-113966010D01*
X187504880Y-113724105D01*
X187504880Y-113421724D01*
X187577451Y-113179819D01*
X187650023Y-113058867D01*
X187722594Y-112998391D01*
X187867737Y-112937914D01*
X185327580Y-133257805D02*
X185327580Y-131987805D01*
X186198437Y-133257805D02*
X185545294Y-132532091D01*
X186198437Y-131987805D02*
X185327580Y-132713520D01*
X187649866Y-133257805D02*
X186779009Y-133257805D01*
X187214437Y-133257805D02*
X187214437Y-131987805D01*
X187069294Y-132169234D01*
X186924152Y-132290186D01*
X186779009Y-132350662D01*
X188956152Y-132411139D02*
X188956152Y-133257805D01*
X188593294Y-131927329D02*
X188230437Y-132834472D01*
X189173866Y-132834472D01*
X362265646Y-114207821D02*
X362265646Y-112937821D01*
X363136504Y-114207821D02*
X362483361Y-113482107D01*
X363136504Y-112937821D02*
X362265646Y-113663536D01*
X363862218Y-114207821D02*
X364152504Y-114207821D01*
X364297646Y-114147345D01*
X364370218Y-114086869D01*
X364515361Y-113905440D01*
X364587932Y-113663536D01*
X364587932Y-113179726D01*
X364515361Y-113058774D01*
X364442789Y-112998298D01*
X364297646Y-112937821D01*
X364007361Y-112937821D01*
X363862218Y-112998298D01*
X363789646Y-113058774D01*
X363717075Y-113179726D01*
X363717075Y-113482107D01*
X363789646Y-113603059D01*
X363862218Y-113663536D01*
X364007361Y-113724012D01*
X364297646Y-113724012D01*
X364442789Y-113663536D01*
X364515361Y-113603059D01*
X364587932Y-113482107D01*
X418689884Y-114207821D02*
X418689884Y-112937821D01*
X419560741Y-114207821D02*
X418907598Y-113482107D01*
X419560741Y-112937821D02*
X418689884Y-113663536D01*
X421012170Y-114207821D02*
X420141313Y-114207821D01*
X420576741Y-114207821D02*
X420576741Y-112937821D01*
X420431598Y-113119250D01*
X420286456Y-113240202D01*
X420141313Y-113300678D01*
X421592741Y-113058774D02*
X421665313Y-112998298D01*
X421810456Y-112937821D01*
X422173313Y-112937821D01*
X422318456Y-112998298D01*
X422391027Y-113058774D01*
X422463598Y-113179726D01*
X422463598Y-113300678D01*
X422391027Y-113482107D01*
X421520170Y-114207821D01*
X422463598Y-114207821D01*
X456789852Y-114207821D02*
X456789852Y-112937821D01*
X457660709Y-114207821D02*
X457007566Y-113482107D01*
X457660709Y-112937821D02*
X456789852Y-113663536D01*
X459112138Y-114207821D02*
X458241281Y-114207821D01*
X458676709Y-114207821D02*
X458676709Y-112937821D01*
X458531566Y-113119250D01*
X458386424Y-113240202D01*
X458241281Y-113300678D01*
X459620138Y-112937821D02*
X460563566Y-112937821D01*
X460055566Y-113421631D01*
X460273281Y-113421631D01*
X460418424Y-113482107D01*
X460490995Y-113542583D01*
X460563566Y-113663536D01*
X460563566Y-113965917D01*
X460490995Y-114086869D01*
X460418424Y-114147345D01*
X460273281Y-114207821D01*
X459837852Y-114207821D01*
X459692709Y-114147345D01*
X459620138Y-114086869D01*
X211521308Y-133257805D02*
X211521308Y-131987805D01*
X212392165Y-133257805D02*
X211739022Y-132532091D01*
X212392165Y-131987805D02*
X211521308Y-132713520D01*
X213843594Y-133257805D02*
X212972737Y-133257805D01*
X213408165Y-133257805D02*
X213408165Y-131987805D01*
X213263022Y-132169234D01*
X213117880Y-132290186D01*
X212972737Y-132350662D01*
X215222451Y-131987805D02*
X214496737Y-131987805D01*
X214424165Y-132592567D01*
X214496737Y-132532091D01*
X214641880Y-132471615D01*
X215004737Y-132471615D01*
X215149880Y-132532091D01*
X215222451Y-132592567D01*
X215295022Y-132713520D01*
X215295022Y-133015901D01*
X215222451Y-133136853D01*
X215149880Y-133197329D01*
X215004737Y-133257805D01*
X214641880Y-133257805D01*
X214496737Y-133197329D01*
X214424165Y-133136853D01*
X328202460Y-133257805D02*
X328202460Y-131987805D01*
X329073317Y-133257805D02*
X328420174Y-132532091D01*
X329073317Y-131987805D02*
X328202460Y-132713520D01*
X329653889Y-132108758D02*
X329726460Y-132048282D01*
X329871603Y-131987805D01*
X330234460Y-131987805D01*
X330379603Y-132048282D01*
X330452174Y-132108758D01*
X330524746Y-132229710D01*
X330524746Y-132350662D01*
X330452174Y-132532091D01*
X329581317Y-133257805D01*
X330524746Y-133257805D01*
X331976174Y-133257805D02*
X331105317Y-133257805D01*
X331540746Y-133257805D02*
X331540746Y-131987805D01*
X331395603Y-132169234D01*
X331250460Y-132290186D01*
X331105317Y-132350662D01*
X271052508Y-133257805D02*
X271052508Y-131987805D01*
X271923365Y-133257805D02*
X271270222Y-132532091D01*
X271923365Y-131987805D02*
X271052508Y-132713520D01*
X273374794Y-133257805D02*
X272503937Y-133257805D01*
X272939365Y-133257805D02*
X272939365Y-131987805D01*
X272794222Y-132169234D01*
X272649080Y-132290186D01*
X272503937Y-132350662D01*
X274245651Y-132532091D02*
X274100508Y-132471615D01*
X274027937Y-132411139D01*
X273955365Y-132290186D01*
X273955365Y-132229710D01*
X274027937Y-132108758D01*
X274100508Y-132048282D01*
X274245651Y-131987805D01*
X274535937Y-131987805D01*
X274681080Y-132048282D01*
X274753651Y-132108758D01*
X274826222Y-132229710D01*
X274826222Y-132290186D01*
X274753651Y-132411139D01*
X274681080Y-132471615D01*
X274535937Y-132532091D01*
X274245651Y-132532091D01*
X274100508Y-132592567D01*
X274027937Y-132653043D01*
X273955365Y-132773996D01*
X273955365Y-133015901D01*
X274027937Y-133136853D01*
X274100508Y-133197329D01*
X274245651Y-133257805D01*
X274535937Y-133257805D01*
X274681080Y-133197329D01*
X274753651Y-133136853D01*
X274826222Y-133015901D01*
X274826222Y-132773996D01*
X274753651Y-132653043D01*
X274681080Y-132592567D01*
X274535937Y-132532091D01*
X380589916Y-114207821D02*
X380589916Y-112937821D01*
X381460773Y-114207821D02*
X380807630Y-113482107D01*
X381460773Y-112937821D02*
X380589916Y-113663536D01*
X382912202Y-114207821D02*
X382041345Y-114207821D01*
X382476773Y-114207821D02*
X382476773Y-112937821D01*
X382331630Y-113119250D01*
X382186488Y-113240202D01*
X382041345Y-113300678D01*
X383855630Y-112937821D02*
X384000773Y-112937821D01*
X384145916Y-112998298D01*
X384218488Y-113058774D01*
X384291059Y-113179726D01*
X384363630Y-113421631D01*
X384363630Y-113724012D01*
X384291059Y-113965917D01*
X384218488Y-114086869D01*
X384145916Y-114147345D01*
X384000773Y-114207821D01*
X383855630Y-114207821D01*
X383710488Y-114147345D01*
X383637916Y-114086869D01*
X383565345Y-113965917D01*
X383492773Y-113724012D01*
X383492773Y-113421631D01*
X383565345Y-113179726D01*
X383637916Y-113058774D01*
X383710488Y-112998298D01*
X383855630Y-112937821D01*
X309152476Y-133257805D02*
X309152476Y-131987805D01*
X310023333Y-133257805D02*
X309370190Y-132532091D01*
X310023333Y-131987805D02*
X309152476Y-132713520D01*
X310603905Y-132108758D02*
X310676476Y-132048282D01*
X310821619Y-131987805D01*
X311184476Y-131987805D01*
X311329619Y-132048282D01*
X311402190Y-132108758D01*
X311474762Y-132229710D01*
X311474762Y-132350662D01*
X311402190Y-132532091D01*
X310531333Y-133257805D01*
X311474762Y-133257805D01*
X312418190Y-131987805D02*
X312563333Y-131987805D01*
X312708476Y-132048282D01*
X312781048Y-132108758D01*
X312853619Y-132229710D01*
X312926190Y-132471615D01*
X312926190Y-132773996D01*
X312853619Y-133015901D01*
X312781048Y-133136853D01*
X312708476Y-133197329D01*
X312563333Y-133257805D01*
X312418190Y-133257805D01*
X312273048Y-133197329D01*
X312200476Y-133136853D01*
X312127905Y-133015901D01*
X312055333Y-132773996D01*
X312055333Y-132471615D01*
X312127905Y-132229710D01*
X312200476Y-132108758D01*
X312273048Y-132048282D01*
X312418190Y-131987805D01*
X290102492Y-133257805D02*
X290102492Y-131987805D01*
X290973349Y-133257805D02*
X290320206Y-132532091D01*
X290973349Y-131987805D02*
X290102492Y-132713520D01*
X292424778Y-133257805D02*
X291553921Y-133257805D01*
X291989349Y-133257805D02*
X291989349Y-131987805D01*
X291844206Y-132169234D01*
X291699064Y-132290186D01*
X291553921Y-132350662D01*
X293150492Y-133257805D02*
X293440778Y-133257805D01*
X293585921Y-133197329D01*
X293658492Y-133136853D01*
X293803635Y-132955424D01*
X293876206Y-132713520D01*
X293876206Y-132229710D01*
X293803635Y-132108758D01*
X293731064Y-132048282D01*
X293585921Y-131987805D01*
X293295635Y-131987805D01*
X293150492Y-132048282D01*
X293077921Y-132108758D01*
X293005349Y-132229710D01*
X293005349Y-132532091D01*
X293077921Y-132653043D01*
X293150492Y-132713520D01*
X293295635Y-132773996D01*
X293585921Y-132773996D01*
X293731064Y-132713520D01*
X293803635Y-132653043D01*
X293876206Y-132532091D01*
X343215662Y-114207821D02*
X343215662Y-112937821D01*
X344086520Y-114207821D02*
X343433377Y-113482107D01*
X344086520Y-112937821D02*
X343215662Y-113663536D01*
X344957377Y-113482107D02*
X344812234Y-113421631D01*
X344739662Y-113361155D01*
X344667091Y-113240202D01*
X344667091Y-113179726D01*
X344739662Y-113058774D01*
X344812234Y-112998298D01*
X344957377Y-112937821D01*
X345247662Y-112937821D01*
X345392805Y-112998298D01*
X345465377Y-113058774D01*
X345537948Y-113179726D01*
X345537948Y-113240202D01*
X345465377Y-113361155D01*
X345392805Y-113421631D01*
X345247662Y-113482107D01*
X344957377Y-113482107D01*
X344812234Y-113542583D01*
X344739662Y-113603059D01*
X344667091Y-113724012D01*
X344667091Y-113965917D01*
X344739662Y-114086869D01*
X344812234Y-114147345D01*
X344957377Y-114207821D01*
X345247662Y-114207821D01*
X345392805Y-114147345D01*
X345465377Y-114086869D01*
X345537948Y-113965917D01*
X345537948Y-113724012D01*
X345465377Y-113603059D01*
X345392805Y-113542583D01*
X345247662Y-113482107D01*
X399639900Y-114207821D02*
X399639900Y-112937821D01*
X400510757Y-114207821D02*
X399857614Y-113482107D01*
X400510757Y-112937821D02*
X399639900Y-113663536D01*
X401962186Y-114207821D02*
X401091329Y-114207821D01*
X401526757Y-114207821D02*
X401526757Y-112937821D01*
X401381614Y-113119250D01*
X401236472Y-113240202D01*
X401091329Y-113300678D01*
X403413614Y-114207821D02*
X402542757Y-114207821D01*
X402978186Y-114207821D02*
X402978186Y-112937821D01*
X402833043Y-113119250D01*
X402687900Y-113240202D01*
X402542757Y-113300678D01*
X252002524Y-133257805D02*
X252002524Y-131987805D01*
X252873381Y-133257805D02*
X252220238Y-132532091D01*
X252873381Y-131987805D02*
X252002524Y-132713520D01*
X254324810Y-133257805D02*
X253453953Y-133257805D01*
X253889381Y-133257805D02*
X253889381Y-131987805D01*
X253744238Y-132169234D01*
X253599096Y-132290186D01*
X253453953Y-132350662D01*
X254832810Y-131987805D02*
X255848810Y-131987805D01*
X255195667Y-133257805D01*
X404402396Y-133257805D02*
X404402396Y-131987805D01*
X405273253Y-133257805D02*
X404620110Y-132532091D01*
X405273253Y-131987805D02*
X404402396Y-132713520D01*
X405853825Y-132108758D02*
X405926396Y-132048282D01*
X406071539Y-131987805D01*
X406434396Y-131987805D01*
X406579539Y-132048282D01*
X406652110Y-132108758D01*
X406724682Y-132229710D01*
X406724682Y-132350662D01*
X406652110Y-132532091D01*
X405781253Y-133257805D01*
X406724682Y-133257805D01*
X408103539Y-131987805D02*
X407377825Y-131987805D01*
X407305253Y-132592567D01*
X407377825Y-132532091D01*
X407522968Y-132471615D01*
X407885825Y-132471615D01*
X408030968Y-132532091D01*
X408103539Y-132592567D01*
X408176110Y-132713520D01*
X408176110Y-133015901D01*
X408103539Y-133136853D01*
X408030968Y-133197329D01*
X407885825Y-133257805D01*
X407522968Y-133257805D01*
X407377825Y-133197329D01*
X407305253Y-133136853D01*
X385352412Y-133257805D02*
X385352412Y-131987805D01*
X386223269Y-133257805D02*
X385570126Y-132532091D01*
X386223269Y-131987805D02*
X385352412Y-132713520D01*
X386803841Y-132108758D02*
X386876412Y-132048282D01*
X387021555Y-131987805D01*
X387384412Y-131987805D01*
X387529555Y-132048282D01*
X387602126Y-132108758D01*
X387674698Y-132229710D01*
X387674698Y-132350662D01*
X387602126Y-132532091D01*
X386731269Y-133257805D01*
X387674698Y-133257805D01*
X388980984Y-132411139D02*
X388980984Y-133257805D01*
X388618126Y-131927329D02*
X388255269Y-132834472D01*
X389198698Y-132834472D01*
X347252444Y-133257805D02*
X347252444Y-131987805D01*
X348123301Y-133257805D02*
X347470158Y-132532091D01*
X348123301Y-131987805D02*
X347252444Y-132713520D01*
X348703873Y-132108758D02*
X348776444Y-132048282D01*
X348921587Y-131987805D01*
X349284444Y-131987805D01*
X349429587Y-132048282D01*
X349502158Y-132108758D01*
X349574730Y-132229710D01*
X349574730Y-132350662D01*
X349502158Y-132532091D01*
X348631301Y-133257805D01*
X349574730Y-133257805D01*
X350155301Y-132108758D02*
X350227873Y-132048282D01*
X350373016Y-131987805D01*
X350735873Y-131987805D01*
X350881016Y-132048282D01*
X350953587Y-132108758D01*
X351026158Y-132229710D01*
X351026158Y-132350662D01*
X350953587Y-132532091D01*
X350082730Y-133257805D01*
X351026158Y-133257805D01*
X366302428Y-133257805D02*
X366302428Y-131987805D01*
X367173285Y-133257805D02*
X366520142Y-132532091D01*
X367173285Y-131987805D02*
X366302428Y-132713520D01*
X367753857Y-132108758D02*
X367826428Y-132048282D01*
X367971571Y-131987805D01*
X368334428Y-131987805D01*
X368479571Y-132048282D01*
X368552142Y-132108758D01*
X368624714Y-132229710D01*
X368624714Y-132350662D01*
X368552142Y-132532091D01*
X367681285Y-133257805D01*
X368624714Y-133257805D01*
X369132714Y-131987805D02*
X370076142Y-131987805D01*
X369568142Y-132471615D01*
X369785857Y-132471615D01*
X369931000Y-132532091D01*
X370003571Y-132592567D01*
X370076142Y-132713520D01*
X370076142Y-133015901D01*
X370003571Y-133136853D01*
X369931000Y-133197329D01*
X369785857Y-133257805D01*
X369350428Y-133257805D01*
X369205285Y-133197329D01*
X369132714Y-133136853D01*
X232952540Y-133257805D02*
X232952540Y-131987805D01*
X233823397Y-133257805D02*
X233170254Y-132532091D01*
X233823397Y-131987805D02*
X232952540Y-132713520D01*
X235274826Y-133257805D02*
X234403969Y-133257805D01*
X234839397Y-133257805D02*
X234839397Y-131987805D01*
X234694254Y-132169234D01*
X234549112Y-132290186D01*
X234403969Y-132350662D01*
X236581112Y-131987805D02*
X236290826Y-131987805D01*
X236145683Y-132048282D01*
X236073112Y-132108758D01*
X235927969Y-132290186D01*
X235855397Y-132532091D01*
X235855397Y-133015901D01*
X235927969Y-133136853D01*
X236000540Y-133197329D01*
X236145683Y-133257805D01*
X236435969Y-133257805D01*
X236581112Y-133197329D01*
X236653683Y-133136853D01*
X236726254Y-133015901D01*
X236726254Y-132713520D01*
X236653683Y-132592567D01*
X236581112Y-132532091D01*
X236435969Y-132471615D01*
X236145683Y-132471615D01*
X236000540Y-132532091D01*
X235927969Y-132592567D01*
X235855397Y-132713520D01*
X275716812Y-171348389D02*
X275716812Y-170078389D01*
X276587669Y-171348389D02*
X275934526Y-170622675D01*
X276587669Y-170078389D02*
X275716812Y-170804104D01*
X277893955Y-170501723D02*
X277893955Y-171348389D01*
X277531098Y-170017913D02*
X277168241Y-170925056D01*
X278111669Y-170925056D01*
X278764812Y-171348389D02*
X279055098Y-171348389D01*
X279200241Y-171287913D01*
X279272812Y-171227437D01*
X279417955Y-171046008D01*
X279490526Y-170804104D01*
X279490526Y-170320294D01*
X279417955Y-170199342D01*
X279345384Y-170138866D01*
X279200241Y-170078389D01*
X278909955Y-170078389D01*
X278764812Y-170138866D01*
X278692241Y-170199342D01*
X278619669Y-170320294D01*
X278619669Y-170622675D01*
X278692241Y-170743627D01*
X278764812Y-170804104D01*
X278909955Y-170864580D01*
X279200241Y-170864580D01*
X279345384Y-170804104D01*
X279417955Y-170743627D01*
X279490526Y-170622675D01*
X423452380Y-133257805D02*
X423452380Y-131987805D01*
X424323237Y-133257805D02*
X423670094Y-132532091D01*
X424323237Y-131987805D02*
X423452380Y-132713520D01*
X424903809Y-132108758D02*
X424976380Y-132048282D01*
X425121523Y-131987805D01*
X425484380Y-131987805D01*
X425629523Y-132048282D01*
X425702094Y-132108758D01*
X425774666Y-132229710D01*
X425774666Y-132350662D01*
X425702094Y-132532091D01*
X424831237Y-133257805D01*
X425774666Y-133257805D01*
X427080952Y-131987805D02*
X426790666Y-131987805D01*
X426645523Y-132048282D01*
X426572952Y-132108758D01*
X426427809Y-132290186D01*
X426355237Y-132532091D01*
X426355237Y-133015901D01*
X426427809Y-133136853D01*
X426500380Y-133197329D01*
X426645523Y-133257805D01*
X426935809Y-133257805D01*
X427080952Y-133197329D01*
X427153523Y-133136853D01*
X427226094Y-133015901D01*
X427226094Y-132713520D01*
X427153523Y-132592567D01*
X427080952Y-132532091D01*
X426935809Y-132471615D01*
X426645523Y-132471615D01*
X426500380Y-132532091D01*
X426427809Y-132592567D01*
X426355237Y-132713520D01*
X389991412Y-171322989D02*
X389991412Y-170052989D01*
X390862269Y-171322989D02*
X390209126Y-170597275D01*
X390862269Y-170052989D02*
X389991412Y-170778704D01*
X392241126Y-170052989D02*
X391515412Y-170052989D01*
X391442841Y-170657751D01*
X391515412Y-170597275D01*
X391660555Y-170536799D01*
X392023412Y-170536799D01*
X392168555Y-170597275D01*
X392241126Y-170657751D01*
X392313698Y-170778704D01*
X392313698Y-171081085D01*
X392241126Y-171202037D01*
X392168555Y-171262513D01*
X392023412Y-171322989D01*
X391660555Y-171322989D01*
X391515412Y-171262513D01*
X391442841Y-171202037D01*
X393765126Y-171322989D02*
X392894269Y-171322989D01*
X393329698Y-171322989D02*
X393329698Y-170052989D01*
X393184555Y-170234418D01*
X393039412Y-170355370D01*
X392894269Y-170415846D01*
X449646108Y-133257805D02*
X449646108Y-131987805D01*
X450516965Y-133257805D02*
X449863822Y-132532091D01*
X450516965Y-131987805D02*
X449646108Y-132713520D01*
X451823251Y-132411139D02*
X451823251Y-133257805D01*
X451460394Y-131927329D02*
X451097537Y-132834472D01*
X452040965Y-132834472D01*
X453419822Y-133257805D02*
X452548965Y-133257805D01*
X452984394Y-133257805D02*
X452984394Y-131987805D01*
X452839251Y-132169234D01*
X452694108Y-132290186D01*
X452548965Y-132350662D01*
X322948107Y-108109888D02*
X323976203Y-108109888D01*
X324097155Y-108037317D01*
X324157631Y-107964746D01*
X324218107Y-107819603D01*
X324218107Y-107529317D01*
X324157631Y-107384174D01*
X324097155Y-107311603D01*
X323976203Y-107239031D01*
X322948107Y-107239031D01*
X322948107Y-106223031D02*
X322948107Y-106077888D01*
X323008584Y-105932746D01*
X323069060Y-105860174D01*
X323190012Y-105787603D01*
X323431917Y-105715031D01*
X323734298Y-105715031D01*
X323976203Y-105787603D01*
X324097155Y-105860174D01*
X324157631Y-105932746D01*
X324218107Y-106077888D01*
X324218107Y-106223031D01*
X324157631Y-106368174D01*
X324097155Y-106440746D01*
X323976203Y-106513317D01*
X323734298Y-106585888D01*
X323431917Y-106585888D01*
X323190012Y-106513317D01*
X323069060Y-106440746D01*
X323008584Y-106368174D01*
X322948107Y-106223031D01*
D13*
X329178107Y-93501126D02*
X328844774Y-93024936D01*
X328606679Y-93501126D02*
X328606679Y-92501126D01*
X328987631Y-92501126D01*
X329082869Y-92548746D01*
X329130488Y-92596365D01*
X329178107Y-92691603D01*
X329178107Y-92834460D01*
X329130488Y-92929698D01*
X329082869Y-92977317D01*
X328987631Y-93024936D01*
X328606679Y-93024936D01*
X329559060Y-93215412D02*
X330035250Y-93215412D01*
X329463822Y-93501126D02*
X329797155Y-92501126D01*
X330130488Y-93501126D01*
X330368584Y-92501126D02*
X330606679Y-93501126D01*
X330797155Y-92786841D01*
X330987631Y-93501126D01*
X331225726Y-92501126D01*
X319530488Y-92501126D02*
X320101917Y-92501126D01*
X319816203Y-93501126D02*
X319816203Y-92501126D01*
X320340012Y-92501126D02*
X321006679Y-93501126D01*
X321006679Y-92501126D02*
X320340012Y-93501126D01*
X321578107Y-92501126D02*
X321673345Y-92501126D01*
X321768584Y-92548746D01*
X321816203Y-92596365D01*
X321863822Y-92691603D01*
X321911441Y-92882079D01*
X321911441Y-93120174D01*
X321863822Y-93310650D01*
X321816203Y-93405888D01*
X321768584Y-93453507D01*
X321673345Y-93501126D01*
X321578107Y-93501126D01*
X321482869Y-93453507D01*
X321435250Y-93405888D01*
X321387631Y-93310650D01*
X321340012Y-93120174D01*
X321340012Y-92882079D01*
X321387631Y-92691603D01*
X321435250Y-92596365D01*
X321482869Y-92548746D01*
X321578107Y-92501126D01*
M02*
