M48
; DRILL file {KiCad (5.1.2)-1} date 6/5/2020 12:30:09 PM
; FORMAT={3:3/ absolute / metric / suppress leading zeros}
; #@! TF.CreationDate,2020-06-05T12:30:09-05:00
; #@! TF.GenerationSoftware,Kicad,Pcbnew,(5.1.2)-1
FMAT,2
METRIC,TZ
T1C0.400
T2C1.000
T3C1.092
T4C1.470
T5C1.499
T6C1.750
T7C1.800
T8C2.200
T9C3.048
T10C3.988
%
G90
G05
T1
X308000Y-100980
X308750Y-100230
X309750Y-118230
X310250Y-120730
X320000Y-118230
X320500Y-135480
X322750Y-123730
X348071Y-119108
X433000Y-115230
X438750Y-132480
T2
X405062Y-138079
X405062Y-145879
X243137Y-119029
X243137Y-126829
X428875Y-105696
X428875Y-113496
X357437Y-119029
X357437Y-126829
X295525Y-105635
X295525Y-113435
X311000Y-143980
X311000Y-151780
X347912Y-138140
X347912Y-145940
X390775Y-105696
X390775Y-113496
X287397Y-157171
X287397Y-164971
X443162Y-157129
X443162Y-164929
X336304Y-105665
X336304Y-113465
X395537Y-119090
X395537Y-126890
X300287Y-119029
X300287Y-126829
X376487Y-119029
X376487Y-126829
X424112Y-157190
X424112Y-164990
X338387Y-119029
X338387Y-126829
X314325Y-92869
X314325Y-95409
X314325Y-97949
X314575Y-105665
X314575Y-113465
X266950Y-157160
X266950Y-164960
X222004Y-119148
X222004Y-126948
X238375Y-105635
X238375Y-113435
X195810Y-119148
X195810Y-126948
X252662Y-138140
X252662Y-145940
X195513Y-105933
X195513Y-113733
X245750Y-162480
X245750Y-170280
X262187Y-119029
X262187Y-126829
X290762Y-138140
X290762Y-145940
X281237Y-119029
X281237Y-126829
X366962Y-138079
X366962Y-145879
X447925Y-138140
X447925Y-145940
X465931Y-118813
X465931Y-126613
X276475Y-105635
X276475Y-113435
X433637Y-119029
X433637Y-126829
X465931Y-138198
X465931Y-145998
X401545Y-157196
X401545Y-164996
X414587Y-119029
X414587Y-126829
X447925Y-105635
X447925Y-113435
X465931Y-104844
X465931Y-112644
X424112Y-138079
X424112Y-145879
X372023Y-105933
X372023Y-113733
X328565Y-138140
X328565Y-145940
X409825Y-105993
X409825Y-113793
X195513Y-138140
X195513Y-145940
X271712Y-138140
X271712Y-145940
X352973Y-105635
X352973Y-113435
X233612Y-138140
X233612Y-145940
X386012Y-138140
X386012Y-145940
X335756Y-92551
X335756Y-95091
X335756Y-97631
X319337Y-125280
X319337Y-133080
X219325Y-105635
X219325Y-113435
X347750Y-155980
X347750Y-163780
X257425Y-105635
X257425Y-113435
X325751Y-156917
X325751Y-164717
X195810Y-157427
X195810Y-165227
T3
X317649Y-92979
X317649Y-95519
X317649Y-98059
X317649Y-100599
X317649Y-103139
X317649Y-105679
X317649Y-108219
X317649Y-110759
X317649Y-113299
X317649Y-115839
X317649Y-118379
X317649Y-120919
X332889Y-92979
X332889Y-95519
X332889Y-98059
X332889Y-100599
X332889Y-103139
X332889Y-105679
X332889Y-108219
X332889Y-110759
X332889Y-113299
X332889Y-115839
X332889Y-118379
X332889Y-120919
T4
X331006Y-165068
X337356Y-162528
X304695Y-165059
X311045Y-162519
X352320Y-165059
X358670Y-162519
T5
X252404Y-165068
X258754Y-162528
X359581Y-107918
X365931Y-105378
X411968Y-146018
X418318Y-143478
X209562Y-126968
X215912Y-124428
X230993Y-165068
X237343Y-162528
X307193Y-126968
X313543Y-124428
X373868Y-146018
X380218Y-143478
X402443Y-126968
X408793Y-124428
X273757Y-165059
X280107Y-162519
X335768Y-146018
X342118Y-143478
X183368Y-107918
X189718Y-105378
X433399Y-146018
X439749Y-143478
X421493Y-126968
X427843Y-124428
X183388Y-165068
X189738Y-162528
X214324Y-146018
X220674Y-143478
X326243Y-126968
X332593Y-124428
X409587Y-165068
X415937Y-162528
X264331Y-107918
X270681Y-105378
X259568Y-146018
X265918Y-143478
X288143Y-126968
X294493Y-124428
X207181Y-107918
X213531Y-105378
X354818Y-146018
X361168Y-143478
X383393Y-126968
X389743Y-124428
X226231Y-107918
X232581Y-105378
X183368Y-146018
X189718Y-143478
X340531Y-107918
X346881Y-105378
X345293Y-126968
X351643Y-124428
X297668Y-146018
X304018Y-143478
X416730Y-107918
X423080Y-105378
X364343Y-126968
X370693Y-124428
X388032Y-165033
X394382Y-162493
X454830Y-107918
X461180Y-105378
X278618Y-146018
X284968Y-143478
X269093Y-126968
X275443Y-124428
X321481Y-107918
X327831Y-105378
X392918Y-146018
X399268Y-143478
X183368Y-126968
X189718Y-124428
X447687Y-126968
X454037Y-124428
X302431Y-107918
X308781Y-105378
X397680Y-107918
X404030Y-105378
X283381Y-107918
X289731Y-105378
X435780Y-107918
X442130Y-105378
X378630Y-107918
X384980Y-105378
X230993Y-126968
X237343Y-124428
X240518Y-146018
X246868Y-143478
X250043Y-126968
X256393Y-124428
X245281Y-107918
X251631Y-105378
X316718Y-146018
X323068Y-143478
X431018Y-165068
X437368Y-162528
X454830Y-146018
X461180Y-143478
T6
X329736Y-167608
X339896Y-167608
X303425Y-167599
X313585Y-167599
X351050Y-167599
X361210Y-167599
T7
X453560Y-110458
X463720Y-110458
X277348Y-148558
X287508Y-148558
X267823Y-129508
X277983Y-129508
X320211Y-110458
X330371Y-110458
X391648Y-148558
X401808Y-148558
X182098Y-129508
X192258Y-129508
X446417Y-129508
X456577Y-129508
X301161Y-110458
X311321Y-110458
X396410Y-110458
X406570Y-110458
X282111Y-110458
X292271Y-110458
X434510Y-110458
X444670Y-110458
X377360Y-110458
X387520Y-110458
X229723Y-129508
X239883Y-129508
X239248Y-148558
X249408Y-148558
X248773Y-129508
X258933Y-129508
X244011Y-110458
X254171Y-110458
X315448Y-148558
X325608Y-148558
X429748Y-167608
X439908Y-167608
X453560Y-148558
X463720Y-148558
X251134Y-167608
X261294Y-167608
X358311Y-110458
X368471Y-110458
X410698Y-148558
X420858Y-148558
X208292Y-129508
X218452Y-129508
X229723Y-167608
X239883Y-167608
X305923Y-129508
X316083Y-129508
X372598Y-148558
X382758Y-148558
X401173Y-129508
X411333Y-129508
X272487Y-167599
X282647Y-167599
X334498Y-148558
X344658Y-148558
X182098Y-110458
X192258Y-110458
X432129Y-148558
X442289Y-148558
X420223Y-129508
X430383Y-129508
X182118Y-167608
X192278Y-167608
X213054Y-148558
X223214Y-148558
X324973Y-129508
X335133Y-129508
X408317Y-167608
X418477Y-167608
X263061Y-110458
X273221Y-110458
X258298Y-148558
X268458Y-148558
X286873Y-129508
X297033Y-129508
X205911Y-110458
X216071Y-110458
X353548Y-148558
X363708Y-148558
X382123Y-129508
X392283Y-129508
X224961Y-110458
X235121Y-110458
X182098Y-148558
X192258Y-148558
X339261Y-110458
X349421Y-110458
X344023Y-129508
X354183Y-129508
X296398Y-148558
X306558Y-148558
X415460Y-110458
X425620Y-110458
X363073Y-129508
X373233Y-129508
X386762Y-167573
X396922Y-167573
T8
X377656Y-160360
X382419Y-119910
X310994Y-138960
X210981Y-119898
X244306Y-158010
X451494Y-138960
T9
X277666Y-174593
X391966Y-174593
X296598Y-174584
X320411Y-174584
X344223Y-174584
X368036Y-174584
T10
X210991Y-110458
X358628Y-148558
X387203Y-129508
X230041Y-110458
X187178Y-148558
X344341Y-110458
X349103Y-129508
X301478Y-148558
X420540Y-110458
X368153Y-129508
X391842Y-167573
X458640Y-110458
X282428Y-148558
X272903Y-129508
X325291Y-110458
X396728Y-148558
X187178Y-129508
X451497Y-129508
X306241Y-110458
X401490Y-110458
X287191Y-110458
X439590Y-110458
X382440Y-110458
X234803Y-129508
X244328Y-148558
X253853Y-129508
X249091Y-110458
X320528Y-148558
X434828Y-167608
X458640Y-148558
X256214Y-167608
X363391Y-110458
X415778Y-148558
X213372Y-129508
X277666Y-159353
X334816Y-167608
X391966Y-159353
X234803Y-167608
X311003Y-129508
X377678Y-148558
X406253Y-129508
X277567Y-167599
X296598Y-159344
X308505Y-167599
X320411Y-159344
X339578Y-148558
X187178Y-110458
X437209Y-148558
X425303Y-129508
X187198Y-167608
X218134Y-148558
X330053Y-129508
X413397Y-167608
X268141Y-110458
X344223Y-159344
X356130Y-167599
X368036Y-159344
X263378Y-148558
X291953Y-129508
T0
M30
