M48
; DRILL file {KiCad (5.1.2)-1} date 6/5/2020 12:57:33 PM
; FORMAT={3:3/ absolute / metric / suppress leading zeros}
; #@! TF.CreationDate,2020-06-05T12:57:33-05:00
; #@! TF.GenerationSoftware,Kicad,Pcbnew,(5.1.2)-1
FMAT,2
METRIC,TZ
T1C0.400
T2C1.000
T3C1.092
T4C1.499
T5C1.800
T6C2.200
T7C3.048
T8C3.988
%
G90
G05
T1
X307750Y-101250
X308500Y-100500
X309500Y-118500
X310000Y-121000
X314008Y-115796
X319103Y-123101
X319250Y-104750
X319750Y-118500
X320250Y-135750
X322500Y-124000
X322880Y-106106
X323032Y-120769
X323629Y-94536
X324104Y-97803
X324465Y-101625
X325500Y-98500
X326750Y-99500
X328000Y-100250
X329000Y-101250
X330250Y-102000
X347820Y-119377
X432750Y-115500
X438500Y-132750
X456090Y-105100
T2
X295275Y-105905
X295275Y-113705
X433387Y-119299
X433387Y-127099
X242887Y-119299
X242887Y-127099
X328315Y-138410
X328315Y-146210
X195560Y-157697
X195560Y-165497
X466725Y-105966
X466725Y-113766
X366712Y-138349
X366712Y-146149
X404812Y-138349
X404812Y-146149
X390525Y-105966
X390525Y-113766
X233362Y-138410
X233362Y-146210
X466427Y-138468
X466427Y-146268
X371772Y-106202
X371772Y-114002
X290512Y-138410
X290512Y-146210
X319087Y-125550
X319087Y-133350
X352722Y-105905
X352722Y-113705
X409575Y-106263
X409575Y-114063
X314325Y-105935
X314325Y-113735
X338137Y-119299
X338137Y-127099
X266700Y-157430
X266700Y-165230
X238125Y-105905
X238125Y-113705
X447675Y-105905
X447675Y-113705
X423862Y-138349
X423862Y-146149
X261937Y-119299
X261937Y-127099
X300037Y-119299
X300037Y-127099
X442912Y-157399
X442912Y-165199
X195560Y-119418
X195560Y-127218
X414337Y-119299
X414337Y-127099
X401295Y-157466
X401295Y-165266
X357187Y-119299
X357187Y-127099
X376237Y-119299
X376237Y-127099
X245500Y-162750
X245500Y-170550
X276225Y-105905
X276225Y-113705
X428625Y-105966
X428625Y-113766
X221754Y-119418
X221754Y-127218
X310750Y-144250
X310750Y-152050
X385762Y-138410
X385762Y-146210
X257175Y-105905
X257175Y-113705
X195262Y-106202
X195262Y-114002
X347662Y-138410
X347662Y-146210
X447675Y-138410
X447675Y-146210
X280987Y-119299
X280987Y-127099
X271462Y-138410
X271462Y-146210
X466725Y-119360
X466725Y-127160
X325501Y-157187
X325501Y-164987
X219075Y-105905
X219075Y-113705
X252412Y-138410
X252412Y-146210
X287147Y-157441
X287147Y-165241
X195262Y-138410
X195262Y-146210
X314361Y-93261
X314361Y-95801
X314361Y-98341
X395287Y-119360
X395287Y-127160
X335732Y-93276
X335732Y-95816
X335732Y-98356
X347500Y-156250
X347500Y-164050
X336054Y-105935
X336054Y-113735
X423862Y-157460
X423862Y-165260
T3
X317398Y-93248
X317398Y-95788
X317398Y-98328
X317398Y-100868
X317398Y-103408
X317398Y-105948
X317398Y-108488
X317398Y-111028
X317398Y-113568
X317398Y-116108
X317398Y-118648
X317398Y-121188
X332638Y-93248
X332638Y-95788
X332638Y-98328
X332638Y-100868
X332638Y-103408
X332638Y-105948
X332638Y-108488
X332638Y-111028
X332638Y-113568
X332638Y-116108
X332638Y-118648
X332638Y-121188
T4
X435530Y-108188
X441880Y-105648
X183118Y-146288
X189468Y-143748
X287893Y-127238
X294243Y-124698
X335518Y-146288
X341868Y-143748
X209312Y-127238
X215662Y-124698
X354568Y-146288
X360918Y-143748
X273507Y-165329
X279857Y-162789
X245030Y-108188
X251380Y-105648
X340280Y-108188
X346630Y-105648
X230743Y-165338
X237093Y-162798
X283130Y-108188
X289480Y-105648
X325993Y-127238
X332343Y-124698
X249793Y-127238
X256143Y-124698
X183138Y-165338
X189488Y-162798
X345043Y-127238
X351393Y-124698
X278368Y-146288
X284718Y-143748
X259318Y-146288
X265668Y-143748
X240268Y-146288
X246618Y-143748
X364093Y-127238
X370443Y-124698
X373618Y-146288
X379968Y-143748
X306943Y-127238
X313293Y-124698
X392668Y-146288
X399018Y-143748
X447436Y-127238
X453786Y-124698
X378380Y-108188
X384730Y-105648
X402193Y-127238
X408543Y-124698
X206930Y-108188
X213280Y-105648
X454580Y-108188
X460930Y-105648
X397430Y-108188
X403780Y-105648
X359330Y-108188
X365680Y-105648
X430768Y-165338
X437118Y-162798
X214074Y-146288
X220424Y-143748
X433149Y-146288
X439499Y-143748
X383143Y-127238
X389493Y-124698
X330755Y-165338
X337105Y-162798
X297418Y-146288
X303768Y-143748
X409337Y-165338
X415687Y-162798
X302180Y-108188
X308530Y-105648
X316468Y-146288
X322818Y-143748
X352069Y-165329
X358419Y-162789
X225980Y-108188
X232330Y-105648
X230743Y-127238
X237093Y-124698
X411718Y-146288
X418068Y-143748
X304444Y-165329
X310794Y-162789
X264080Y-108188
X270430Y-105648
X183118Y-127238
X189468Y-124698
X421243Y-127238
X427593Y-124698
X321230Y-108188
X327580Y-105648
X416480Y-108188
X422830Y-105648
X454580Y-146288
X460930Y-143748
X268843Y-127238
X275193Y-124698
X387782Y-165303
X394132Y-162763
X183118Y-108188
X189468Y-105648
X252154Y-165338
X258504Y-162798
T5
X358060Y-110728
X368220Y-110728
X429498Y-167878
X439658Y-167878
X212804Y-148828
X222964Y-148828
X431879Y-148828
X442039Y-148828
X381873Y-129778
X392033Y-129778
X329485Y-167878
X339645Y-167878
X296148Y-148828
X306308Y-148828
X408067Y-167878
X418227Y-167878
X300910Y-110728
X311070Y-110728
X315198Y-148828
X325358Y-148828
X350799Y-167869
X360959Y-167869
X224710Y-110728
X234870Y-110728
X229473Y-129778
X239633Y-129778
X410448Y-148828
X420608Y-148828
X303174Y-167869
X313334Y-167869
X262810Y-110728
X272970Y-110728
X181848Y-129778
X192008Y-129778
X419973Y-129778
X430133Y-129778
X319960Y-110728
X330120Y-110728
X415210Y-110728
X425370Y-110728
X453310Y-148828
X463470Y-148828
X267573Y-129778
X277733Y-129778
X386512Y-167843
X396672Y-167843
X181848Y-110728
X192008Y-110728
X250884Y-167878
X261044Y-167878
X434260Y-110728
X444420Y-110728
X181848Y-148828
X192008Y-148828
X286623Y-129778
X296783Y-129778
X334248Y-148828
X344408Y-148828
X208042Y-129778
X218202Y-129778
X353298Y-148828
X363458Y-148828
X272237Y-167869
X282397Y-167869
X243760Y-110728
X253920Y-110728
X339010Y-110728
X349170Y-110728
X229473Y-167878
X239633Y-167878
X281860Y-110728
X292020Y-110728
X324723Y-129778
X334883Y-129778
X248523Y-129778
X258683Y-129778
X181868Y-167878
X192028Y-167878
X343773Y-129778
X353933Y-129778
X277098Y-148828
X287258Y-148828
X258048Y-148828
X268208Y-148828
X238998Y-148828
X249158Y-148828
X362823Y-129778
X372983Y-129778
X372348Y-148828
X382508Y-148828
X305673Y-129778
X315833Y-129778
X391398Y-148828
X401558Y-148828
X446166Y-129778
X456326Y-129778
X377110Y-110728
X387270Y-110728
X400923Y-129778
X411083Y-129778
X205660Y-110728
X215820Y-110728
X453310Y-110728
X463470Y-110728
X396160Y-110728
X406320Y-110728
T6
X244056Y-158280
X210731Y-120167
X310744Y-139230
X377406Y-160630
X382168Y-120180
X451244Y-139230
T7
X277415Y-160893
X277415Y-160893
X391715Y-160893
X343941Y-160884
X367817Y-160884
X296316Y-160884
X320192Y-160884
T8
X244078Y-148828
X367903Y-129778
X377428Y-148828
X310753Y-129778
X396478Y-148828
X451246Y-129778
X382190Y-110728
X406003Y-129778
X210740Y-110728
X458390Y-110728
X401240Y-110728
X363140Y-110728
X434578Y-167878
X217884Y-148828
X436959Y-148828
X386953Y-129778
X277415Y-176133
X277415Y-176133
X334565Y-167878
X391715Y-176133
X301228Y-148828
X413147Y-167878
X305990Y-110728
X320278Y-148828
X343941Y-176124
X355879Y-167869
X367817Y-176124
X229790Y-110728
X234553Y-129778
X415528Y-148828
X296316Y-176124
X308254Y-167869
X320192Y-176124
X267890Y-110728
X186928Y-129778
X425053Y-129778
X325040Y-110728
X420290Y-110728
X458390Y-148828
X272653Y-129778
X391592Y-167843
X186928Y-110728
X255964Y-167878
X439340Y-110728
X186928Y-148828
X291703Y-129778
X339328Y-148828
X213122Y-129778
X358378Y-148828
X277317Y-167869
X248840Y-110728
X344090Y-110728
X234553Y-167878
X286940Y-110728
X329803Y-129778
X253603Y-129778
X186948Y-167878
X348853Y-129778
X282178Y-148828
X263128Y-148828
T0
M30
