G04 #@! TF.GenerationSoftware,KiCad,Pcbnew,(5.1.2)-1*
G04 #@! TF.CreationDate,2020-06-05T12:57:31-05:00*
G04 #@! TF.ProjectId,NightmarePCB fixed NKRO,4e696768-746d-4617-9265-504342206669,rev?*
G04 #@! TF.SameCoordinates,Original*
G04 #@! TF.FileFunction,Soldermask,Top*
G04 #@! TF.FilePolarity,Negative*
%FSLAX46Y46*%
G04 Gerber Fmt 4.6, Leading zero omitted, Abs format (unit mm)*
G04 Created by KiCad (PCBNEW (5.1.2)-1) date 2020-06-05 12:57:31*
%MOMM*%
%LPD*%
G04 APERTURE LIST*
%ADD10R,2.100000X2.100000*%
%ADD11O,2.100000X2.100000*%
%ADD12C,2.686000*%
%ADD13C,2.152600*%
%ADD14R,2.152600X2.152600*%
%ADD15R,2.000000X2.000000*%
%ADD16C,2.000000*%
%ADD17R,1.600000X2.000000*%
%ADD18C,2.600000*%
G04 APERTURE END LIST*
D10*
X335732120Y-98356420D03*
D11*
X335732120Y-95816420D03*
X335732120Y-93276420D03*
D10*
X314360560Y-93261180D03*
D11*
X314360560Y-95801180D03*
X314360560Y-98341180D03*
D12*
X387781800Y-165303200D03*
X394131800Y-162763200D03*
X352069400Y-165328600D03*
X358419400Y-162788600D03*
X304444400Y-165328600D03*
X310794400Y-162788600D03*
X273507200Y-165328600D03*
X279857200Y-162788600D03*
D13*
X332638400Y-93248480D03*
X317398400Y-121188480D03*
X332638400Y-95788480D03*
X332638400Y-98328480D03*
X332638400Y-100868480D03*
X332638400Y-103408480D03*
X332638400Y-105948480D03*
X332638400Y-108488480D03*
X332638400Y-111028480D03*
X332638400Y-113568480D03*
X332638400Y-116108480D03*
X332638400Y-118648480D03*
X332638400Y-121188480D03*
X317398400Y-118648480D03*
X317398400Y-116108480D03*
X317398400Y-113568480D03*
X317398400Y-111028480D03*
X317398400Y-108488480D03*
X317398400Y-105948480D03*
X317398400Y-103408480D03*
X317398400Y-100868480D03*
X317398400Y-98328480D03*
X317398400Y-95788480D03*
D14*
X317398400Y-93248480D03*
D12*
X447436496Y-127238016D03*
X453786496Y-124698016D03*
X421242768Y-127238016D03*
X427592768Y-124698016D03*
D15*
X195262336Y-114002248D03*
D16*
X195262336Y-106202248D03*
D17*
X195262336Y-111502248D03*
X195262336Y-108702248D03*
D15*
X219074816Y-113704592D03*
D16*
X219074816Y-105904592D03*
D17*
X219074816Y-111204592D03*
X219074816Y-108404592D03*
D15*
X238124800Y-113704592D03*
D16*
X238124800Y-105904592D03*
D17*
X238124800Y-111204592D03*
X238124800Y-108404592D03*
D15*
X257174784Y-113704592D03*
D16*
X257174784Y-105904592D03*
D17*
X257174784Y-111204592D03*
X257174784Y-108404592D03*
D15*
X276224768Y-113704592D03*
D16*
X276224768Y-105904592D03*
D17*
X276224768Y-111204592D03*
X276224768Y-108404592D03*
X295274752Y-108404592D03*
X295274752Y-111204592D03*
D16*
X295274752Y-105904592D03*
D15*
X295274752Y-113704592D03*
X314324736Y-113735064D03*
D16*
X314324736Y-105935064D03*
D17*
X314324736Y-111235064D03*
X314324736Y-108435064D03*
D15*
X336053624Y-113735064D03*
D16*
X336053624Y-105935064D03*
D17*
X336053624Y-111235064D03*
X336053624Y-108435064D03*
X352722360Y-108404592D03*
X352722360Y-111204592D03*
D16*
X352722360Y-105904592D03*
D15*
X352722360Y-113704592D03*
D17*
X371772344Y-108702248D03*
X371772344Y-111502248D03*
D16*
X371772344Y-106202248D03*
D15*
X371772344Y-114002248D03*
X390524672Y-113765536D03*
D16*
X390524672Y-105965536D03*
D17*
X390524672Y-111265536D03*
X390524672Y-108465536D03*
X409574656Y-108763192D03*
X409574656Y-111563192D03*
D16*
X409574656Y-106263192D03*
D15*
X409574656Y-114063192D03*
X428624640Y-113765536D03*
D16*
X428624640Y-105965536D03*
D17*
X428624640Y-111265536D03*
X428624640Y-108465536D03*
D15*
X466724608Y-113765536D03*
D16*
X466724608Y-105965536D03*
D17*
X466724608Y-111265536D03*
X466724608Y-108465536D03*
D15*
X195559992Y-127217864D03*
D16*
X195559992Y-119417864D03*
D17*
X195559992Y-124717864D03*
X195559992Y-121917864D03*
X221753720Y-121917864D03*
X221753720Y-124717864D03*
D16*
X221753720Y-119417864D03*
D15*
X221753720Y-127217864D03*
X242887296Y-127099112D03*
D16*
X242887296Y-119299112D03*
D17*
X242887296Y-124599112D03*
X242887296Y-121799112D03*
X261937280Y-121799112D03*
X261937280Y-124599112D03*
D16*
X261937280Y-119299112D03*
D15*
X261937280Y-127099112D03*
X280987264Y-127099112D03*
D16*
X280987264Y-119299112D03*
D17*
X280987264Y-124599112D03*
X280987264Y-121799112D03*
D15*
X300037248Y-127099112D03*
D16*
X300037248Y-119299112D03*
D17*
X300037248Y-124599112D03*
X300037248Y-121799112D03*
X319087232Y-128049888D03*
X319087232Y-130849888D03*
D16*
X319087232Y-125549888D03*
D15*
X319087232Y-133349888D03*
D17*
X338137216Y-121799112D03*
X338137216Y-124599112D03*
D16*
X338137216Y-119299112D03*
D15*
X338137216Y-127099112D03*
D17*
X357187200Y-121799112D03*
X357187200Y-124599112D03*
D16*
X357187200Y-119299112D03*
D15*
X357187200Y-127099112D03*
D17*
X376237184Y-121799112D03*
X376237184Y-124599112D03*
D16*
X376237184Y-119299112D03*
D15*
X376237184Y-127099112D03*
X395287168Y-127160056D03*
D16*
X395287168Y-119360056D03*
D17*
X395287168Y-124660056D03*
X395287168Y-121860056D03*
D15*
X414337152Y-127099112D03*
D16*
X414337152Y-119299112D03*
D17*
X414337152Y-124599112D03*
X414337152Y-121799112D03*
D15*
X433387136Y-127099112D03*
D16*
X433387136Y-119299112D03*
D17*
X433387136Y-124599112D03*
X433387136Y-121799112D03*
X447674624Y-108404592D03*
X447674624Y-111204592D03*
D16*
X447674624Y-105904592D03*
D15*
X447674624Y-113704592D03*
D17*
X195262336Y-140910040D03*
X195262336Y-143710040D03*
D16*
X195262336Y-138410040D03*
D15*
X195262336Y-146210040D03*
X233362304Y-146210040D03*
D16*
X233362304Y-138410040D03*
D17*
X233362304Y-143710040D03*
X233362304Y-140910040D03*
X252412288Y-140910040D03*
X252412288Y-143710040D03*
D16*
X252412288Y-138410040D03*
D15*
X252412288Y-146210040D03*
X271462272Y-146210040D03*
D16*
X271462272Y-138410040D03*
D17*
X271462272Y-143710040D03*
X271462272Y-140910040D03*
X290512256Y-140910040D03*
X290512256Y-143710040D03*
D16*
X290512256Y-138410040D03*
D15*
X290512256Y-146210040D03*
X310750000Y-152050000D03*
D16*
X310750000Y-144250000D03*
D17*
X310750000Y-149550000D03*
X310750000Y-146750000D03*
X328314568Y-140910040D03*
X328314568Y-143710040D03*
D16*
X328314568Y-138410040D03*
D15*
X328314568Y-146210040D03*
X347662208Y-146210040D03*
D16*
X347662208Y-138410040D03*
D17*
X347662208Y-143710040D03*
X347662208Y-140910040D03*
X366712192Y-140849096D03*
X366712192Y-143649096D03*
D16*
X366712192Y-138349096D03*
D15*
X366712192Y-146149096D03*
D17*
X385762176Y-140910040D03*
X385762176Y-143710040D03*
D16*
X385762176Y-138410040D03*
D15*
X385762176Y-146210040D03*
X404812160Y-146149096D03*
D16*
X404812160Y-138349096D03*
D17*
X404812160Y-143649096D03*
X404812160Y-140849096D03*
X423862144Y-140849096D03*
X423862144Y-143649096D03*
D16*
X423862144Y-138349096D03*
D15*
X423862144Y-146149096D03*
X447674624Y-146210040D03*
D16*
X447674624Y-138410040D03*
D17*
X447674624Y-143710040D03*
X447674624Y-140910040D03*
X466724608Y-121860056D03*
X466724608Y-124660056D03*
D16*
X466724608Y-119360056D03*
D15*
X466724608Y-127160056D03*
X245500000Y-170550000D03*
D16*
X245500000Y-162750000D03*
D17*
X245500000Y-168050000D03*
X245500000Y-165250000D03*
X266699776Y-159929552D03*
X266699776Y-162729552D03*
D16*
X266699776Y-157429552D03*
D15*
X266699776Y-165229552D03*
X347500000Y-164050000D03*
D16*
X347500000Y-156250000D03*
D17*
X347500000Y-161550000D03*
X347500000Y-158750000D03*
X423862144Y-159960024D03*
X423862144Y-162760024D03*
D16*
X423862144Y-157460024D03*
D15*
X423862144Y-165260024D03*
X442912128Y-165199080D03*
D16*
X442912128Y-157399080D03*
D17*
X442912128Y-162699080D03*
X442912128Y-159899080D03*
X466426952Y-140967848D03*
X466426952Y-143767848D03*
D16*
X466426952Y-138467848D03*
D15*
X466426952Y-146267848D03*
X195559992Y-165496736D03*
D16*
X195559992Y-157696736D03*
D17*
X195559992Y-162996736D03*
X195559992Y-160196736D03*
D12*
X189468125Y-105648125D03*
X183118125Y-108188125D03*
X213280448Y-105648032D03*
X206930448Y-108188032D03*
X232330432Y-105648032D03*
X225980432Y-108188032D03*
X251380416Y-105648032D03*
X245030416Y-108188032D03*
X270430400Y-105648032D03*
X264080400Y-108188032D03*
X283130384Y-108188032D03*
X289480384Y-105648032D03*
X302180368Y-108188032D03*
X308530368Y-105648032D03*
X327580352Y-105648032D03*
X321230352Y-108188032D03*
X340280336Y-108188032D03*
X346630336Y-105648032D03*
X365680320Y-105648032D03*
X359330320Y-108188032D03*
X378380304Y-108188032D03*
X384730304Y-105648032D03*
X403780288Y-105648032D03*
X397430288Y-108188032D03*
X416480272Y-108188032D03*
X422830272Y-105648032D03*
X454580240Y-108188032D03*
X460930240Y-105648032D03*
X183117968Y-127238016D03*
X189467968Y-124698016D03*
X215661696Y-124698016D03*
X209311696Y-127238016D03*
X230742928Y-127238016D03*
X237092928Y-124698016D03*
X256142912Y-124698016D03*
X249792912Y-127238016D03*
X275192896Y-124698016D03*
X268842896Y-127238016D03*
X294242880Y-124698016D03*
X287892880Y-127238016D03*
X306942864Y-127238016D03*
X313292864Y-124698016D03*
X332342848Y-124698016D03*
X325992848Y-127238016D03*
X345042832Y-127238016D03*
X351392832Y-124698016D03*
X364092816Y-127238016D03*
X370442816Y-124698016D03*
X389492800Y-124698016D03*
X383142800Y-127238016D03*
X402192784Y-127238016D03*
X408542784Y-124698016D03*
X441880256Y-105648032D03*
X435530256Y-108188032D03*
X189467968Y-143748000D03*
X183117968Y-146288000D03*
X214074192Y-146288000D03*
X220424192Y-143748000D03*
X246617920Y-143748000D03*
X240267920Y-146288000D03*
X259317904Y-146288000D03*
X265667904Y-143748000D03*
X278367888Y-146288000D03*
X284717888Y-143748000D03*
X297417872Y-146288000D03*
X303767872Y-143748000D03*
X316467856Y-146288000D03*
X322817856Y-143748000D03*
X341867840Y-143748000D03*
X335517840Y-146288000D03*
X360917824Y-143748000D03*
X354567824Y-146288000D03*
X373617808Y-146288000D03*
X379967808Y-143748000D03*
X399017792Y-143748000D03*
X392667792Y-146288000D03*
X411717776Y-146288000D03*
X418067776Y-143748000D03*
X433149008Y-146288000D03*
X439499008Y-143748000D03*
X230742928Y-165337984D03*
X237092928Y-162797984D03*
X252154312Y-165337984D03*
X258504312Y-162797984D03*
X337105344Y-162797984D03*
X330755344Y-165337984D03*
X415686528Y-162797984D03*
X409336528Y-165337984D03*
X430767760Y-165337984D03*
X437117760Y-162797984D03*
X460930240Y-143748000D03*
X454580240Y-146288000D03*
X183137816Y-165337984D03*
X189487816Y-162797984D03*
D18*
X382168400Y-120180100D03*
X451243700Y-139230100D03*
X377405900Y-160629600D03*
X244055900Y-158280100D03*
X210731100Y-120167400D03*
X310743600Y-139230100D03*
D17*
X287147000Y-162740800D03*
X287147000Y-159940800D03*
D16*
X287147000Y-157440800D03*
D15*
X287147000Y-165240800D03*
X325501000Y-164986800D03*
D16*
X325501000Y-157186800D03*
D17*
X325501000Y-159686800D03*
X325501000Y-162486800D03*
X401294600Y-162766200D03*
X401294600Y-159966200D03*
D16*
X401294600Y-157466200D03*
D15*
X401294600Y-165266200D03*
M02*
